RobotoDelta-XOPQmin-YOPQmin-XTRAmax.ufo
<glyph name="quotedbl" format="1">
  <advance width="938"/>
  <unicode hex="0022"/>
  <outline>
    <contour>
      <point x="120" y="963" type="line"/>
      <point x="254" y="963" type="line"/>
      <point x="276" y="1301" type="line"/>
      <point x="276" y="1456" type="line"/>
      <point x="100" y="1456" type="line"/>
      <point x="100" y="1292" type="line"/>
    </contour>
    <contour>
      <point x="682" y="963" type="line"/>
      <point x="816" y="963" type="line"/>
      <point x="838" y="1301" type="line"/>
      <point x="838" y="1456" type="line"/>
      <point x="662" y="1456" type="line"/>
      <point x="662" y="1299" type="line"/>
    </contour>
  </outline>
</glyph>
<glyph name="ampersand" format="1">
  <advance width="1288"/>
  <unicode hex="0026"/>
  <outline>
    <contour>
      <point x="80" y="380" type="qcurve" smooth="yes"/>
      <point x="80" y="210"/>
      <point x="322" y="-20"/>
      <point x="537" y="-20" type="qcurve" smooth="yes"/>
      <point x="812" y="-20"/>
      <point x="1184" y="380"/>
      <point x="1184" y="674" type="qcurve"/>
      <point x="1130" y="674" type="line"/>
      <point x="1130" y="380"/>
      <point x="780" y="30"/>
      <point x="537" y="30" type="qcurve" smooth="yes"/>
      <point x="354" y="30"/>
      <point x="134" y="230"/>
      <point x="134" y="380" type="qcurve" smooth="yes"/>
      <point x="134" y="483"/>
      <point x="285" y="666"/>
      <point x="495" y="780" type="qcurve" smooth="yes"/>
      <point x="670" y="873" type="line" smooth="yes"/>
      <point x="759" y="924"/>
      <point x="885" y="1080"/>
      <point x="885" y="1181" type="qcurve" smooth="yes"/>
      <point x="885" y="1322"/>
      <point x="705" y="1486"/>
      <point x="569" y="1486" type="qcurve" smooth="yes"/>
      <point x="429" y="1486"/>
      <point x="240" y="1307"/>
      <point x="240" y="1160" type="qcurve" smooth="yes"/>
      <point x="240" y="1070"/>
      <point x="324" y="920"/>
      <point x="452" y="782" type="qcurve" smooth="yes"/>
      <point x="1177" y="0" type="line"/>
      <point x="1264" y="0" type="line"/>
      <point x="503" y="795" type="line" smooth="yes"/>
      <point x="384" y="923"/>
      <point x="292" y="1080"/>
      <point x="292" y="1160" type="qcurve" smooth="yes"/>
      <point x="292" y="1276"/>
      <point x="445" y="1436"/>
      <point x="569" y="1436" type="qcurve" smooth="yes"/>
      <point x="687" y="1436"/>
      <point x="822" y="1286"/>
      <point x="822" y="1180" type="qcurve" smooth="yes"/>
      <point x="822" y="1086"/>
      <point x="715" y="955"/>
      <point x="618" y="904" type="qcurve" smooth="yes"/>
      <point x="458" y="823" type="line" smooth="yes"/>
      <point x="228" y="706"/>
      <point x="80" y="517"/>
    </contour>
  </outline>
</glyph>
<glyph name="quotesingle" format="1">
  <advance width="405"/>
  <unicode hex="0027"/>
  <outline>
    <contour>
      <point x="134" y="963" type="line"/>
      <point x="269" y="963" type="line"/>
      <point x="305" y="1301" type="line"/>
      <point x="305" y="1456" type="line"/>
      <point x="100" y="1456" type="line"/>
      <point x="100" y="1292" type="line"/>
    </contour>
  </outline>
</glyph>
<glyph name="parenleft" format="1">
  <advance width="560"/>
  <unicode hex="0028"/>
  <outline>
    <contour>
      <point x="659" y="-436" type="qcurve"/>
      <point x="659" y="-386" type="line"/>
      <point x="456" y="-326"/>
      <point x="179" y="120"/>
      <point x="179" y="508" type="qcurve" smooth="yes"/>
      <point x="179" y="532" type="line" smooth="yes"/>
      <point x="179" y="920"/>
      <point x="456" y="1366"/>
      <point x="659" y="1426" type="qcurve"/>
      <point x="659" y="1476" type="line"/>
      <point x="430" y="1424"/>
      <point x="124" y="920"/>
      <point x="124" y="525" type="qcurve" smooth="yes"/>
      <point x="124" y="515" type="line" smooth="yes"/>
      <point x="124" y="120"/>
      <point x="430" y="-384"/>
    </contour>
  </outline>
</glyph>
<glyph name="zero" format="1">
  <advance width="1390"/>
  <unicode hex="0030"/>
  <outline>
    <contour>
      <point x="249" y="570" type="line" smooth="yes"/>
      <point x="249" y="288"/>
      <point x="482" y="-30"/>
      <point x="695" y="-30" type="qcurve" smooth="yes"/>
      <point x="908" y="-30"/>
      <point x="1141" y="288"/>
      <point x="1141" y="570" type="qcurve" smooth="yes"/>
      <point x="1141" y="886" type="line" smooth="yes"/>
      <point x="1141" y="1164"/>
      <point x="908" y="1486"/>
      <point x="695" y="1486" type="qcurve" smooth="yes"/>
      <point x="482" y="1486"/>
      <point x="249" y="1164"/>
      <point x="249" y="886" type="qcurve" smooth="yes"/>
    </contour>
    <contour>
      <point x="303" y="560" type="qcurve" smooth="yes"/>
      <point x="303" y="896" type="line" smooth="yes"/>
      <point x="303" y="1133"/>
      <point x="497" y="1436"/>
      <point x="695" y="1436" type="qcurve" smooth="yes"/>
      <point x="893" y="1436"/>
      <point x="1087" y="1133"/>
      <point x="1087" y="896" type="qcurve" smooth="yes"/>
      <point x="1087" y="560" type="line" smooth="yes"/>
      <point x="1087" y="318"/>
      <point x="893" y="20"/>
      <point x="695" y="20" type="qcurve" smooth="yes"/>
      <point x="497" y="20"/>
      <point x="303" y="318"/>
    </contour>
  </outline>
</glyph>
<glyph name="one" format="1">
  <advance width="1390"/>
  <unicode hex="0031"/>
  <outline>
    <contour>
      <point x="730" y="0" type="line"/>
      <point x="784" y="0" type="line"/>
      <point x="784" y="1476" type="line"/>
      <point x="746" y="1476" type="line"/>
      <point x="222" y="1325" type="line"/>
      <point x="222" y="1270" type="line"/>
      <point x="730" y="1431" type="line"/>
    </contour>
  </outline>
</glyph>
<glyph name="two" format="1">
  <advance width="1172"/>
  <unicode hex="0032"/>
  <outline>
    <contour>
      <point x="102" y="0" type="line"/>
      <point x="1103" y="0" type="line"/>
      <point x="1103" y="51" type="line"/>
      <point x="187" y="51" type="line"/>
      <point x="754" y="610" type="line" smooth="yes"/>
      <point x="861" y="714"/>
      <point x="1010" y="928"/>
      <point x="1010" y="1071" type="qcurve" smooth="yes"/>
      <point x="1010" y="1275"/>
      <point x="813" y="1495"/>
      <point x="587" y="1495" type="qcurve" smooth="yes"/>
      <point x="380" y="1495"/>
      <point x="134" y="1262"/>
      <point x="134" y="1033" type="qcurve" smooth="yes"/>
      <point x="134" y="1028" type="line"/>
      <point x="184" y="1028" type="line"/>
      <point x="184" y="1065" type="line" smooth="yes"/>
      <point x="184" y="1214"/>
      <point x="407" y="1444"/>
      <point x="590" y="1444" type="qcurve" smooth="yes"/>
      <point x="757" y="1444"/>
      <point x="956" y="1280"/>
      <point x="956" y="1097" type="qcurve" smooth="yes"/>
      <point x="956" y="969"/>
      <point x="829" y="749"/>
      <point x="701" y="635" type="qcurve" smooth="yes"/>
      <point x="102" y="66" type="line"/>
    </contour>
  </outline>
</glyph>
<glyph name="five" format="1">
  <advance width="1390"/>
  <unicode hex="0035"/>
  <outline>
    <contour>
      <point x="230" y="365" type="line" smooth="yes"/>
      <point x="230" y="195"/>
      <point x="483" y="-30"/>
      <point x="687" y="-30" type="qcurve" smooth="yes"/>
      <point x="892" y="-30"/>
      <point x="1160.0" y="235.0"/>
      <point x="1160" y="465" type="qcurve" smooth="yes"/>
      <point x="1160.0" y="672.3305954825462"/>
      <point x="894" y="904"/>
      <point x="705" y="904" type="qcurve" smooth="yes"/>
      <point x="591" y="904"/>
      <point x="403" y="810"/>
      <point x="348" y="747" type="qcurve"/>
      <point x="411" y="1406" type="line"/>
      <point x="1080" y="1406" type="line"/>
      <point x="1080" y="1456" type="line"/>
      <point x="366" y="1456" type="line"/>
      <point x="292" y="720" type="line"/>
      <point x="366" y="692" type="line"/>
      <point x="430" y="764"/>
      <point x="587" y="854"/>
      <point x="687" y="854" type="qcurve" smooth="yes"/>
      <point x="871" y="854"/>
      <point x="1105.0" y="654.7560975609756"/>
      <point x="1105" y="465" type="qcurve" smooth="yes"/>
      <point x="1105.0" y="253.7240356083086"/>
      <point x="871" y="20"/>
      <point x="687" y="20" type="qcurve" smooth="yes"/>
      <point x="504" y="20"/>
      <point x="283" y="205"/>
      <point x="283" y="365" type="qcurve" smooth="yes"/>
      <point x="283" y="375" type="line"/>
      <point x="230" y="375" type="line"/>
    </contour>
  </outline>
</glyph>
<glyph name="six" format="1">
  <advance width="1147"/>
  <unicode hex="0036"/>
  <outline>
    <contour>
      <point x="84" y="632" type="line" smooth="yes"/>
      <point x="84" y="263"/>
      <point x="393" y="-40"/>
      <point x="608" y="-40" type="qcurve" smooth="yes"/>
      <point x="803" y="-40"/>
      <point x="1088" y="240"/>
      <point x="1088" y="475" type="qcurve" smooth="yes"/>
      <point x="1088" y="711"/>
      <point x="822" y="936"/>
      <point x="662" y="936" type="qcurve" smooth="yes"/>
      <point x="464" y="936"/>
      <point x="161" y="745"/>
      <point x="111" y="666" type="qcurve"/>
      <point x="120" y="553" type="line"/>
      <point x="187" y="670"/>
      <point x="472" y="874"/>
      <point x="652" y="874" type="qcurve" smooth="yes"/>
      <point x="831" y="874"/>
      <point x="1035" y="663"/>
      <point x="1035" y="446" type="qcurve" smooth="yes"/>
      <point x="1035" y="232"/>
      <point x="808" y="10"/>
      <point x="603" y="10" type="qcurve" smooth="yes"/>
      <point x="381" y="10"/>
      <point x="137" y="266"/>
      <point x="137" y="627" type="qcurve" smooth="yes"/>
      <point x="137" y="642" type="line" smooth="yes"/>
      <point x="137" y="997"/>
      <point x="565" y="1452"/>
      <point x="916" y="1452" type="qcurve" smooth="yes"/>
      <point x="961" y="1452" type="line"/>
      <point x="961" y="1508" type="line"/>
      <point x="921" y="1508" type="line" smooth="yes"/>
      <point x="546" y="1508"/>
      <point x="84" y="1065"/>
      <point x="84" y="640" type="qcurve" smooth="yes"/>
    </contour>
  </outline>
</glyph>
<glyph name="seven" format="1">
  <advance width="1390"/>
  <unicode hex="0037"/>
  <outline>
    <contour>
      <point x="417" y="0" type="line"/>
      <point x="479" y="0" type="line"/>
      <point x="1219" y="1402" type="line"/>
      <point x="1219" y="1456" type="line"/>
      <point x="178" y="1456" type="line"/>
      <point x="178" y="1402" type="line"/>
      <point x="1157" y="1402" type="line"/>
    </contour>
  </outline>
</glyph>
<glyph name="eight" format="1">
  <advance width="1390"/>
  <unicode hex="0038"/>
  <outline>
    <contour>
      <point x="237" y="376" type="qcurve" smooth="yes"/>
      <point x="237.0" y="182.7596153846154"/>
      <point x="510.0" y="-30.0"/>
      <point x="696" y="-30" type="qcurve" smooth="yes"/>
      <point x="882.0" y="-30.0"/>
      <point x="1156.0" y="182.7596153846154"/>
      <point x="1156" y="376" type="qcurve" smooth="yes"/>
      <point x="1156.0" y="509.64145658263305"/>
      <point x="993.374282215697" y="706.8540299358782"/>
      <point x="871" y="743" type="qcurve"/>
      <point x="871" y="747" type="line"/>
      <point x="968.4571527639017" y="783.2228619724021"/>
      <point x="1101.0" y="973.4705882352941"/>
      <point x="1101" y="1097" type="qcurve" smooth="yes"/>
      <point x="1101.0" y="1272.4887218045112"/>
      <point x="858.0" y="1486.0"/>
      <point x="696" y="1486" type="qcurve" smooth="yes"/>
      <point x="534.0" y="1486.0"/>
      <point x="291.0" y="1272.4887218045112"/>
      <point x="291" y="1097" type="qcurve" smooth="yes"/>
      <point x="291.0" y="973.4705882352941"/>
      <point x="424.5428472360983" y="783.2228619724021"/>
      <point x="521" y="747" type="qcurve"/>
      <point x="521" y="743" type="line"/>
      <point x="398.625717784303" y="706.8540299358782"/>
      <point x="237.0" y="509.64145658263305"/>
    </contour>
    <contour>
      <point x="291" y="376" type="qcurve" smooth="yes"/>
      <point x="291.0" y="528.4311377245509"/>
      <point x="522.0" y="720.0"/>
      <point x="696" y="720" type="qcurve" smooth="yes"/>
      <point x="871.0" y="720.0"/>
      <point x="1102.0" y="528.4311377245509"/>
      <point x="1102" y="376" type="qcurve" smooth="yes"/>
      <point x="1102.0" y="216.4808743169399"/>
      <point x="871.0" y="20.0"/>
      <point x="696" y="20" type="qcurve" smooth="yes"/>
      <point x="522.0" y="20.0"/>
      <point x="291.0" y="216.4808743169399"/>
    </contour>
    <contour>
      <point x="345" y="1097" type="qcurve" smooth="yes"/>
      <point x="345.0" y="1245.6160458452723"/>
      <point x="547.0" y="1436.0"/>
      <point x="696" y="1436" type="qcurve" smooth="yes"/>
      <point x="846.0" y="1436.0"/>
      <point x="1047.0" y="1245.6160458452723"/>
      <point x="1047" y="1097" type="qcurve" smooth="yes"/>
      <point x="1047.0" y="955.6782334384858"/>
      <point x="846.0" y="770.0"/>
      <point x="696" y="770" type="qcurve" smooth="yes"/>
      <point x="547.0" y="770.0"/>
      <point x="345.0" y="955.6782334384858"/>
    </contour>
  </outline>
</glyph>
<glyph name="colon" format="1">
  <advance width="627"/>
  <unicode hex="003A"/>
  <outline>
    <contour>
      <point x="176" y="96" type="qcurve" smooth="yes"/>
      <point x="176" y="37"/>
      <point x="256" y="-22"/>
      <point x="312" y="-22" type="qcurve" smooth="yes"/>
      <point x="368" y="-22"/>
      <point x="449" y="37"/>
      <point x="449" y="96" type="qcurve" smooth="yes"/>
      <point x="449" y="156"/>
      <point x="368" y="215"/>
      <point x="312" y="215" type="qcurve" smooth="yes"/>
      <point x="256" y="215"/>
      <point x="176" y="156"/>
    </contour>
    <contour>
      <point x="178" y="949" type="qcurve" smooth="yes"/>
      <point x="178" y="890"/>
      <point x="258" y="831"/>
      <point x="314" y="831" type="qcurve" smooth="yes"/>
      <point x="369" y="831"/>
      <point x="451" y="890"/>
      <point x="451" y="949" type="qcurve" smooth="yes"/>
      <point x="451" y="1009"/>
      <point x="369" y="1068"/>
      <point x="314" y="1068" type="qcurve" smooth="yes"/>
      <point x="258" y="1068"/>
      <point x="178" y="1009"/>
    </contour>
  </outline>
</glyph>
<glyph name="equal" format="1">
  <advance width="1489"/>
  <unicode hex="003D"/>
  <outline>
    <contour>
      <point x="153" y="787" type="line"/>
      <point x="1336" y="787" type="line"/>
      <point x="1336" y="955" type="line"/>
      <point x="153" y="955" type="line"/>
    </contour>
    <contour>
      <point x="153" y="379" type="line"/>
      <point x="1336" y="379" type="line"/>
      <point x="1336" y="547" type="line"/>
      <point x="153" y="547" type="line"/>
    </contour>
  </outline>
</glyph>
<glyph name="greater" format="1">
  <advance width="1467"/>
  <unicode hex="003E"/>
  <outline>
    <contour>
      <point x="180" y="220" type="line"/>
      <point x="1295" y="570" type="line"/>
      <point x="1295" y="725" type="line"/>
      <point x="180" y="1074" type="line"/>
      <point x="180" y="905" type="line"/>
      <point x="1055" y="645" type="line"/>
      <point x="180" y="389" type="line"/>
    </contour>
  </outline>
</glyph>
<glyph name="question" format="1">
  <advance width="1179"/>
  <unicode hex="003F"/>
  <outline>
    <contour>
      <point x="622" y="410" type="line"/>
      <point x="622" y="412" type="line" smooth="yes"/>
      <point x="622" y="472"/>
      <point x="680" y="612"/>
      <point x="798" y="692" type="qcurve" smooth="yes"/>
      <point x="893" y="755"/>
      <point x="1083" y="953"/>
      <point x="1083" y="1096" type="qcurve" smooth="yes"/>
      <point x="1083" y="1278"/>
      <point x="808" y="1476"/>
      <point x="579" y="1476" type="qcurve" smooth="yes"/>
      <point x="350" y="1476"/>
      <point x="60" y="1289"/>
      <point x="60" y="1117" type="qcurve" smooth="yes"/>
      <point x="60" y="1097" type="line"/>
      <point x="243" y="1097" type="line"/>
      <point x="243" y="1117" type="line" smooth="yes"/>
      <point x="243" y="1204"/>
      <point x="418" y="1314"/>
      <point x="579" y="1314" type="qcurve" smooth="yes"/>
      <point x="742" y="1314"/>
      <point x="899" y="1197"/>
      <point x="899" y="1101" type="qcurve" smooth="yes"/>
      <point x="899" y="1009"/>
      <point x="757" y="867"/>
      <point x="631" y="774" type="qcurve" smooth="yes"/>
      <point x="520" y="693"/>
      <point x="438" y="552"/>
      <point x="438" y="415" type="qcurve" smooth="yes"/>
      <point x="438" y="410" type="line"/>
    </contour>
    <contour>
      <point x="412" y="94" type="qcurve" smooth="yes"/>
      <point x="412" y="38"/>
      <point x="486" y="-22"/>
      <point x="541" y="-22" type="qcurve" smooth="yes"/>
      <point x="596" y="-22"/>
      <point x="670" y="38"/>
      <point x="670" y="94" type="qcurve" smooth="yes"/>
      <point x="670" y="151"/>
      <point x="596" y="211"/>
      <point x="541" y="211" type="qcurve" smooth="yes"/>
      <point x="486" y="211"/>
      <point x="412" y="151"/>
    </contour>
  </outline>
</glyph>
<glyph name="at" format="1">
  <advance width="2319"/>
  <unicode hex="0040"/>
  <outline>
    <contour>
      <point x="744" y="400" type="qcurve" smooth="yes"/>
      <point x="744" y="220"/>
      <point x="899" y="0"/>
      <point x="1030" y="0" type="qcurve" smooth="yes"/>
      <point x="1131.8694362017804" y="0.0"/>
      <point x="1304.1406127250627" y="99.310468032339"/>
      <point x="1347" y="190" type="qcurve"/>
      <point x="1385.6883849141282" y="103.09858413739498"/>
      <point x="1555.043583535109" y="0.0"/>
      <point x="1680" y="0" type="qcurve" smooth="yes"/>
      <point x="1900" y="0"/>
      <point x="2205" y="360"/>
      <point x="2205" y="650" type="qcurve" smooth="yes"/>
      <point x="2205" y="1000"/>
      <point x="1667" y="1486"/>
      <point x="1215" y="1486" type="qcurve" smooth="yes"/>
      <point x="759" y="1486"/>
      <point x="114" y="880"/>
      <point x="114" y="460" type="qcurve" smooth="yes"/>
      <point x="114" y="40"/>
      <point x="684" y="-446"/>
      <point x="1090" y="-446" type="qcurve" smooth="yes"/>
      <point x="1265" y="-446"/>
      <point x="1502" y="-400"/>
      <point x="1590" y="-356" type="qcurve"/>
      <point x="1590" y="-306" type="line"/>
      <point x="1507" y="-342"/>
      <point x="1265" y="-396"/>
      <point x="1090" y="-396" type="qcurve" smooth="yes"/>
      <point x="694.8571428571429" y="-396.0"/>
      <point x="168.0" y="49.0"/>
      <point x="168" y="460" type="qcurve" smooth="yes"/>
      <point x="168.0" y="864.0"/>
      <point x="770.0250000000001" y="1436.0"/>
      <point x="1215" y="1436" type="qcurve" smooth="yes"/>
      <point x="1661.3687150837989" y="1436.0"/>
      <point x="2155.0" y="962.0"/>
      <point x="2155" y="650" type="qcurve" smooth="yes"/>
      <point x="2155.0" y="382.0"/>
      <point x="1887.9367088607596" y="50.0"/>
      <point x="1675" y="50" type="qcurve" smooth="yes"/>
      <point x="1535" y="50"/>
      <point x="1368" y="180"/>
      <point x="1408" y="350" type="qcurve" smooth="yes"/>
      <point x="1558" y="946" type="line"/>
      <point x="1535" y="946" type="line"/>
      <point x="1495" y="978"/>
      <point x="1342" y="1052"/>
      <point x="1255" y="1052" type="qcurve" smooth="yes"/>
      <point x="1044" y="1052"/>
      <point x="744" y="680"/>
    </contour>
    <contour>
      <point x="798" y="400" type="qcurve" smooth="yes"/>
      <point x="798.0" y="659.0"/>
      <point x="1066.192118226601" y="1002.0"/>
      <point x="1271" y="1002" type="qcurve" smooth="yes"/>
      <point x="1332.5" y="1002.0"/>
      <point x="1461.4713589395492" y="968.962442663395"/>
      <point x="1502" y="940" type="qcurve"/>
      <point x="1362" y="390" type="line" smooth="yes"/>
      <point x="1315.7328316895141" y="202.41407368773423"/>
      <point x="1155.7262357414447" y="50.0"/>
      <point x="1052" y="50" type="qcurve" smooth="yes"/>
      <point x="928.6990291262136" y="50.0"/>
      <point x="798.0" y="228.0"/>
    </contour>
  </outline>
</glyph>
<glyph name="A" format="1">
  <advance width="1360"/>
  <unicode hex="0041"/>
  <outline>
    <contour>
      <point x="0" y="0" type="line"/>
      <point x="60" y="0" type="line"/>
      <point x="585" y="1206" type="line" smooth="yes"/>
      <point x="611" y="1266"/>
      <point x="655" y="1366"/>
      <point x="672" y="1416" type="qcurve"/>
      <point x="684" y="1416" type="line"/>
      <point x="701" y="1366"/>
      <point x="745" y="1266"/>
      <point x="771" y="1206" type="qcurve" smooth="yes"/>
      <point x="1294" y="0" type="line"/>
      <point x="1360" y="0" type="line"/>
      <point x="720" y="1466" type="line"/>
      <point x="640" y="1466" type="line"/>
    </contour>
    <contour>
      <point x="222" y="440" type="line"/>
      <point x="1136" y="440" type="line"/>
      <point x="1114" y="490" type="line"/>
      <point x="243" y="490" type="line"/>
    </contour>
  </outline>
</glyph>
<glyph name="H" format="1">
  <advance width="1462"/>
  <unicode hex="0048"/>
  <outline>
    <contour>
      <point x="170" y="0" type="line"/>
      <point x="224" y="0" type="line"/>
      <point x="224" y="726" type="line"/>
      <point x="1238" y="726" type="line"/>
      <point x="1238" y="0" type="line"/>
      <point x="1292" y="0" type="line"/>
      <point x="1292" y="1456" type="line"/>
      <point x="1238" y="1456" type="line"/>
      <point x="1238" y="776" type="line"/>
      <point x="224" y="776" type="line"/>
      <point x="224" y="1456" type="line"/>
      <point x="170" y="1456" type="line"/>
    </contour>
  </outline>
</glyph>
<glyph name="K" format="1">
  <advance width="1300"/>
  <unicode hex="004B"/>
  <outline>
    <contour>
      <point x="170" y="0" type="line"/>
      <point x="224" y="0" type="line"/>
      <point x="224" y="532" type="line"/>
      <point x="1294" y="1456" type="line"/>
      <point x="1210" y="1456" type="line"/>
      <point x="224" y="600" type="line"/>
      <point x="224" y="1456" type="line"/>
      <point x="170" y="1456" type="line"/>
    </contour>
    <contour>
      <point x="1242" y="0" type="line"/>
      <point x="1320" y="0" type="line"/>
      <point x="530" y="828" type="line"/>
      <point x="488" y="794" type="line"/>
    </contour>
  </outline>
</glyph>
<glyph name="M" format="1">
  <advance width="1892"/>
  <unicode hex="004D"/>
  <outline>
    <contour>
      <point x="170" y="0" type="line"/>
      <point x="224" y="0" type="line"/>
      <point x="224" y="1261" type="line" smooth="yes"/>
      <point x="224" y="1291"/>
      <point x="219" y="1366"/>
      <point x="216" y="1396" type="qcurve"/>
      <point x="226" y="1396" type="line"/>
      <point x="234" y="1366"/>
      <point x="267" y="1291"/>
      <point x="282" y="1261" type="qcurve" smooth="yes"/>
      <point x="918" y="0" type="line"/>
      <point x="974" y="0" type="line"/>
      <point x="1610" y="1261" type="line" smooth="yes"/>
      <point x="1625" y="1291"/>
      <point x="1658" y="1366"/>
      <point x="1666" y="1396" type="qcurve"/>
      <point x="1676" y="1396" type="line"/>
      <point x="1673" y="1366"/>
      <point x="1668" y="1291"/>
      <point x="1668" y="1261" type="qcurve" smooth="yes"/>
      <point x="1668" y="0" type="line"/>
      <point x="1722" y="0" type="line"/>
      <point x="1722" y="1456" type="line"/>
      <point x="1652" y="1456" type="line"/>
      <point x="1007" y="175" type="line" smooth="yes"/>
      <point x="992" y="145"/>
      <point x="963" y="80"/>
      <point x="953" y="50" type="qcurve"/>
      <point x="943" y="50" type="line"/>
      <point x="933" y="80"/>
      <point x="904" y="145"/>
      <point x="889" y="175" type="qcurve" smooth="yes"/>
      <point x="244" y="1456" type="line"/>
      <point x="170" y="1456" type="line"/>
    </contour>
  </outline>
</glyph>
<glyph name="N" format="1">
  <advance width="1472"/>
  <unicode hex="004E"/>
  <outline>
    <contour>
      <point x="170" y="0" type="line"/>
      <point x="224" y="0" type="line"/>
      <point x="224" y="1275" type="line" smooth="yes"/>
      <point x="224" y="1305"/>
      <point x="220" y="1380"/>
      <point x="216" y="1410" type="qcurve"/>
      <point x="226" y="1410" type="line"/>
      <point x="240" y="1385"/>
      <point x="283" y="1325"/>
      <point x="308" y="1295" type="qcurve" smooth="yes"/>
      <point x="1236" y="0" type="line"/>
      <point x="1302" y="0" type="line"/>
      <point x="1302" y="1456" type="line"/>
      <point x="1248" y="1456" type="line"/>
      <point x="1248" y="181" type="line" smooth="yes"/>
      <point x="1248" y="151"/>
      <point x="1252" y="76"/>
      <point x="1256" y="46" type="qcurve"/>
      <point x="1246" y="46" type="line"/>
      <point x="1232" y="71"/>
      <point x="1189" y="131"/>
      <point x="1164" y="161" type="qcurve" smooth="yes"/>
      <point x="236" y="1456" type="line"/>
      <point x="170" y="1456" type="line"/>
    </contour>
    <contour>
      <point x="748.5" y="1432.0" type="move" name="top"/>
    </contour>
  </outline>
</glyph>
<glyph name="S" format="1">
  <advance width="1209"/>
  <unicode hex="0053"/>
  <outline>
    <contour>
      <point x="90" y="388" type="line" smooth="yes"/>
      <point x="90" y="195"/>
      <point x="377" y="-30"/>
      <point x="615" y="-30" type="qcurve" smooth="yes"/>
      <point x="852" y="-30"/>
      <point x="1129" y="189"/>
      <point x="1129" y="360" type="qcurve" smooth="yes"/>
      <point x="1129" y="514"/>
      <point x="932" y="692"/>
      <point x="652" y="764" type="qcurve" smooth="yes"/>
      <point x="372" y="836"/>
      <point x="180" y="990"/>
      <point x="180" y="1110" type="qcurve" smooth="yes"/>
      <point x="180" y="1250"/>
      <point x="385.93600000000004" y="1436.0"/>
      <point x="602" y="1436" type="qcurve" smooth="yes"/>
      <point x="818.8762886597938" y="1436.0"/>
      <point x="1038" y="1226.0"/>
      <point x="1038" y="1074" type="qcurve" smooth="yes"/>
      <point x="1038" y="1062" type="line"/>
      <point x="1092" y="1062" type="line"/>
      <point x="1092" y="1074" type="line" smooth="yes"/>
      <point x="1092" y="1246"/>
      <point x="827" y="1486"/>
      <point x="602" y="1486" type="qcurve" smooth="yes"/>
      <point x="379" y="1486"/>
      <point x="126" y="1270"/>
      <point x="126" y="1110" type="qcurve" smooth="yes"/>
      <point x="126" y="970"/>
      <point x="336" y="788"/>
      <point x="618" y="716" type="qcurve" smooth="yes"/>
      <point x="900" y="644"/>
      <point x="1075" y="486"/>
      <point x="1075" y="360" type="qcurve" smooth="yes"/>
      <point x="1075" y="218"/>
      <point x="838.3009708737864" y="20.0"/>
      <point x="615" y="20" type="qcurve" smooth="yes"/>
      <point x="392.3049645390071" y="20.0"/>
      <point x="144" y="215.0"/>
      <point x="144" y="388" type="qcurve" smooth="yes"/>
      <point x="144" y="400" type="line"/>
      <point x="90" y="400" type="line"/>
    </contour>
  </outline>
</glyph>
<glyph name="T" format="1">
  <advance width="1220"/>
  <unicode hex="0054"/>
  <outline>
    <contour>
      <point x="24" y="1406" type="line"/>
      <point x="583" y="1406" type="line"/>
      <point x="583" y="0" type="line"/>
      <point x="637" y="0" type="line"/>
      <point x="637" y="1406" type="line"/>
      <point x="1196" y="1406" type="line"/>
      <point x="1196" y="1456" type="line"/>
      <point x="24" y="1456" type="line"/>
    </contour>
  </outline>
</glyph>
<glyph name="U" format="1">
  <advance width="1352"/>
  <unicode hex="0055"/>
  <outline>
    <contour>
      <point x="155" y="520" type="line" smooth="yes"/>
      <point x="155" y="245.0"/>
      <point x="455.0" y="-30.0"/>
      <point x="676" y="-30" type="qcurve" smooth="yes"/>
      <point x="897.0" y="-30.0"/>
      <point x="1197" y="245.0"/>
      <point x="1197" y="520" type="qcurve" smooth="yes"/>
      <point x="1197" y="1456" type="line"/>
      <point x="1143" y="1456" type="line"/>
      <point x="1143" y="520" type="line" smooth="yes"/>
      <point x="1143" y="266.70238095238096"/>
      <point x="878.4224343675418" y="20.0"/>
      <point x="676" y="20" type="qcurve" smooth="yes"/>
      <point x="472.4630071599046" y="20.0"/>
      <point x="209" y="266.70238095238096"/>
      <point x="209" y="520" type="qcurve" smooth="yes"/>
      <point x="209" y="1456" type="line"/>
      <point x="155" y="1456" type="line"/>
    </contour>
  </outline>
</glyph>
<glyph name="V" format="1">
  <advance width="1332"/>
  <unicode hex="0056"/>
  <outline>
    <contour>
      <point x="0" y="1456" type="line"/>
      <point x="628" y="-10" type="line"/>
      <point x="704" y="-10" type="line"/>
      <point x="1332" y="1456" type="line"/>
      <point x="1276" y="1456" type="line"/>
      <point x="764" y="260" type="line" smooth="yes"/>
      <point x="742" y="208"/>
      <point x="692" y="100"/>
      <point x="674" y="50" type="qcurve"/>
      <point x="662" y="50" type="line"/>
      <point x="644" y="100"/>
      <point x="594" y="208"/>
      <point x="572" y="260" type="qcurve" smooth="yes"/>
      <point x="62" y="1456" type="line"/>
    </contour>
  </outline>
</glyph>
<glyph name="W" format="1">
  <advance width="2022"/>
  <unicode hex="0057"/>
  <outline>
    <contour>
      <point x="516" y="-10" type="line"/>
      <point x="575" y="-10" type="line"/>
      <point x="982" y="1322" type="line" smooth="yes"/>
      <point x="993" y="1356"/>
      <point x="1005" y="1417"/>
      <point x="1008" y="1450" type="qcurve"/>
      <point x="1014" y="1450" type="line"/>
      <point x="1018" y="1417"/>
      <point x="1029" y="1356"/>
      <point x="1040" y="1322" type="qcurve" smooth="yes"/>
      <point x="1448" y="-10" type="line"/>
      <point x="1507" y="-10" type="line"/>
      <point x="1972" y="1456" type="line"/>
      <point x="1912" y="1456" type="line"/>
      <point x="1516" y="148" type="line" smooth="yes"/>
      <point x="1506" y="114"/>
      <point x="1498" y="53"/>
      <point x="1494" y="20" type="qcurve"/>
      <point x="1486" y="20" type="line"/>
      <point x="1483" y="53"/>
      <point x="1475" y="114"/>
      <point x="1464" y="148" type="qcurve" smooth="yes"/>
      <point x="1055" y="1456" type="line"/>
      <point x="972" y="1456" type="line"/>
      <point x="565" y="148" type="line" smooth="yes"/>
      <point x="554" y="114"/>
      <point x="547" y="53"/>
      <point x="543" y="20" type="qcurve"/>
      <point x="535" y="20" type="line"/>
      <point x="532" y="53"/>
      <point x="524" y="114"/>
      <point x="513" y="148" type="qcurve" smooth="yes"/>
      <point x="115" y="1456" type="line"/>
      <point x="50" y="1456" type="line"/>
    </contour>
  </outline>
</glyph>
<glyph name="Y" format="1">
  <advance width="1298"/>
  <unicode hex="0059"/>
  <outline>
    <contour>
      <point x="622" y="0" type="line"/>
      <point x="676" y="0" type="line"/>
      <point x="676" y="600" type="line"/>
      <point x="1283" y="1456" type="line"/>
      <point x="1221" y="1456" type="line"/>
      <point x="738" y="774" type="line" smooth="yes"/>
      <point x="717" y="744"/>
      <point x="674" y="682"/>
      <point x="654" y="650" type="qcurve"/>
      <point x="648" y="650" type="line"/>
      <point x="628" y="682"/>
      <point x="585" y="744"/>
      <point x="564" y="774" type="qcurve" smooth="yes"/>
      <point x="83" y="1456" type="line"/>
      <point x="15" y="1456" type="line"/>
      <point x="622" y="600" type="line"/>
    </contour>
  </outline>
</glyph>
<glyph name="underscore" format="1">
  <advance width="1155"/>
  <unicode hex="005F"/>
  <outline>
    <contour>
      <point x="0" y="-150" type="line"/>
      <point x="385" y="-150" type="line"/>
      <point x="385" y="-100" type="line"/>
      <point x="0" y="-100" type="line"/>
    </contour>
    <contour>
      <point x="385" y="-150" type="line"/>
      <point x="770" y="-150" type="line"/>
      <point x="770" y="-100" type="line"/>
      <point x="385" y="-100" type="line"/>
    </contour>
    <contour>
      <point x="770" y="-150" type="line"/>
      <point x="1155" y="-150" type="line"/>
      <point x="1155" y="-100" type="line"/>
      <point x="770" y="-100" type="line"/>
    </contour>
  </outline>
</glyph>
<glyph name="d" format="1">
  <advance width="1521"/>
  <unicode hex="0064"/>
  <outline>
    <contour>
      <point x="85" y="519" type="line" smooth="yes"/>
      <point x="85" y="265"/>
      <point x="434" y="-30"/>
      <point x="691" y="-30" type="qcurve" smooth="yes"/>
      <point x="862" y="-30"/>
      <point x="1097" y="75"/>
      <point x="1187" y="171" type="qcurve"/>
      <point x="1203" y="0" type="line"/>
      <point x="1373" y="0" type="line"/>
      <point x="1373" y="1536" type="line"/>
      <point x="1188" y="1536" type="line"/>
      <point x="1188" y="927" type="line"/>
      <point x="1131" y="984"/>
      <point x="877" y="1087"/>
      <point x="671" y="1087" type="qcurve" smooth="yes"/>
      <point x="411" y="1087"/>
      <point x="85" y="785"/>
      <point x="85" y="532" type="qcurve" smooth="yes"/>
    </contour>
    <contour>
      <point x="274" y="519" type="qcurve" smooth="yes"/>
      <point x="274" y="533" type="line" smooth="yes"/>
      <point x="274" y="701"/>
      <point x="501" y="935"/>
      <point x="713" y="935" type="qcurve" smooth="yes"/>
      <point x="889" y="935"/>
      <point x="1139" y="810"/>
      <point x="1188" y="735" type="qcurve"/>
      <point x="1188" y="349" type="line"/>
      <point x="1132" y="256"/>
      <point x="900" y="127"/>
      <point x="728" y="127" type="qcurve" smooth="yes"/>
      <point x="506" y="127"/>
      <point x="274" y="329"/>
    </contour>
  </outline>
</glyph>
<glyph name="g" format="1">
  <advance width="1510"/>
  <unicode hex="0067"/>
  <outline>
    <contour>
      <point x="130" y="-284" type="line"/>
      <point x="217" y="-351"/>
      <point x="588" y="-437"/>
      <point x="740" y="-437" type="qcurve" smooth="yes"/>
      <point x="1004" y="-437"/>
      <point x="1370" y="-200"/>
      <point x="1370" y="23" type="qcurve" smooth="yes"/>
      <point x="1370" y="1052" type="line"/>
      <point x="1202" y="1052" type="line"/>
      <point x="1184" y="854" type="line"/>
      <point x="1076" y="978"/>
      <point x="814" y="1082"/>
      <point x="651" y="1082" type="qcurve" smooth="yes"/>
      <point x="402" y="1082"/>
      <point x="85" y="778"/>
      <point x="85" y="530" type="qcurve" smooth="yes"/>
      <point x="85" y="522" type="line" smooth="yes"/>
      <point x="85" y="278"/>
      <point x="404" y="-15"/>
      <point x="676" y="-15" type="qcurve" smooth="yes"/>
      <point x="891" y="-15"/>
      <point x="1141" y="150"/>
      <point x="1194" y="250" type="qcurve"/>
      <point x="1194" y="14" type="line" smooth="yes"/>
      <point x="1194" y="-118"/>
      <point x="944" y="-275"/>
      <point x="719" y="-275" type="qcurve" smooth="yes"/>
      <point x="546" y="-275"/>
      <point x="303" y="-192"/>
      <point x="271" y="-169" type="qcurve"/>
    </contour>
    <contour>
      <point x="274" y="525" type="qcurve" smooth="yes"/>
      <point x="274" y="533" type="line" smooth="yes"/>
      <point x="274" y="701"/>
      <point x="500" y="926"/>
      <point x="725" y="926" type="qcurve" smooth="yes"/>
      <point x="911" y="926"/>
      <point x="1145" y="754"/>
      <point x="1188" y="653" type="qcurve"/>
      <point x="1188" y="402" type="line"/>
      <point x="1139" y="296"/>
      <point x="913" y="142"/>
      <point x="730" y="142" type="qcurve" smooth="yes"/>
      <point x="500" y="142"/>
      <point x="274" y="346"/>
    </contour>
  </outline>
</glyph>
<glyph name="j" format="1">
  <advance width="368"/>
  <unicode hex="006A"/>
  <outline>
    <contour>
      <point x="-217" y="-416" type="line"/>
      <point x="-195.6205553708541" y="-421.2103700123928"/>
      <point x="-125.61194029850748" y="-436.0"/>
      <point x="-84" y="-436" type="qcurve" smooth="yes"/>
      <point x="60.73684210526315" y="-436.0"/>
      <point x="211" y="-270.0"/>
      <point x="211" y="-90" type="qcurve" smooth="yes"/>
      <point x="211" y="1052" type="line"/>
      <point x="157" y="1052" type="line"/>
      <point x="157" y="-130" type="line" smooth="yes"/>
      <point x="157" y="-266.53333333333336"/>
      <point x="33.0" y="-386.0"/>
      <point x="-78" y="-386" type="qcurve" smooth="yes"/>
      <point x="-112" y="-386"/>
      <point x="-194" y="-373"/>
      <point x="-217" y="-368" type="qcurve"/>
    </contour>
    <contour>
      <point x="140" y="1412" type="qcurve" smooth="yes"/>
      <point x="140" y="1385"/>
      <point x="163" y="1348"/>
      <point x="184" y="1348" type="qcurve" smooth="yes"/>
      <point x="205" y="1348"/>
      <point x="228" y="1385"/>
      <point x="228" y="1412" type="qcurve" smooth="yes"/>
      <point x="228" y="1439"/>
      <point x="205" y="1476"/>
      <point x="184" y="1476" type="qcurve" smooth="yes"/>
      <point x="163" y="1476"/>
      <point x="140" y="1439"/>
    </contour>
  </outline>
</glyph>
<glyph name="k" format="1">
  <advance width="1372"/>
  <unicode hex="006B"/>
  <outline>
    <contour>
      <point x="1122" y="0" type="line"/>
      <point x="1388" y="0" type="line"/>
      <point x="661" y="651" type="line"/>
      <point x="516" y="545" type="line"/>
    </contour>
    <contour>
      <point x="146" y="0" type="line"/>
      <point x="332" y="0" type="line"/>
      <point x="332" y="342" type="line"/>
      <point x="1317" y="1052" type="line"/>
      <point x="1046" y="1052" type="line"/>
      <point x="505" y="665" type="line" smooth="yes"/>
      <point x="487" y="652"/>
      <point x="378" y="564"/>
      <point x="332" y="521" type="qcurve"/>
      <point x="332" y="1536" type="line"/>
      <point x="146" y="1536" type="line"/>
    </contour>
  </outline>
</glyph>
<glyph name="n" format="1">
  <advance width="1181"/>
  <unicode hex="006E"/>
  <outline>
    <contour>
      <point x="148" y="0" type="line"/>
      <point x="202" y="0" type="line"/>
      <point x="202" y="784" type="line"/>
      <point x="271.7125991964753" y="887.1949188166273"/>
      <point x="483.35474860335194" y="1022.0"/>
      <point x="627" y="1022" type="qcurve" smooth="yes"/>
      <point x="800.0237288135593" y="1022.0"/>
      <point x="989" y="863.8340425531915"/>
      <point x="989" y="681" type="qcurve" smooth="yes"/>
      <point x="989" y="0" type="line"/>
      <point x="1043" y="0" type="line"/>
      <point x="1043" y="679" type="line" smooth="yes"/>
      <point x="1043" y="891.0000000000001"/>
      <point x="834.0" y="1072.0"/>
      <point x="656" y="1072" type="qcurve" smooth="yes"/>
      <point x="509.1487414187643" y="1072.0"/>
      <point x="283" y="967"/>
      <point x="197" y="857" type="qcurve"/>
      <point x="200" y="857" type="line"/>
      <point x="197" y="1052" type="line"/>
      <point x="148" y="1052" type="line"/>
    </contour>
  </outline>
</glyph>
<glyph name="o" format="1">
  <advance width="1542"/>
  <unicode hex="006F"/>
  <outline>
    <contour>
      <point x="85" y="521" type="line" smooth="yes"/>
      <point x="85" y="262"/>
      <point x="470" y="-40"/>
      <point x="772" y="-40" type="qcurve" smooth="yes"/>
      <point x="1073" y="-40"/>
      <point x="1457" y="262"/>
      <point x="1457" y="521" type="qcurve" smooth="yes"/>
      <point x="1457" y="535" type="line" smooth="yes"/>
      <point x="1457" y="796"/>
      <point x="1082" y="1092"/>
      <point x="770" y="1092" type="qcurve" smooth="yes"/>
      <point x="470" y="1092"/>
      <point x="85" y="789"/>
      <point x="85" y="535" type="qcurve" smooth="yes"/>
    </contour>
    <contour>
      <point x="275" y="535" type="line" smooth="yes"/>
      <point x="275" y="693"/>
      <point x="511" y="940"/>
      <point x="770" y="940" type="qcurve" smooth="yes"/>
      <point x="1029" y="940"/>
      <point x="1267" y="693"/>
      <point x="1267" y="535" type="qcurve" smooth="yes"/>
      <point x="1267" y="521" type="line" smooth="yes"/>
      <point x="1267" y="345"/>
      <point x="1029" y="112"/>
      <point x="772" y="112" type="qcurve" smooth="yes"/>
      <point x="511" y="112"/>
      <point x="275" y="356"/>
      <point x="275" y="521" type="qcurve" smooth="yes"/>
    </contour>
    <contour>
      <point x="771" y="1052" type="move" name="top"/>
    </contour>
  </outline>
</glyph>
<glyph name="p" format="1">
  <advance width="1239"/>
  <unicode hex="0070"/>
  <outline>
    <contour>
      <point x="148" y="-416" type="line"/>
      <point x="202" y="-416" type="line"/>
      <point x="202" y="154" type="line"/>
      <point x="276" y="78"/>
      <point x="503" y="-20"/>
      <point x="662" y="-20" type="qcurve" smooth="yes"/>
      <point x="894" y="-20"/>
      <point x="1154" y="280"/>
      <point x="1154" y="510" type="qcurve" smooth="yes"/>
      <point x="1154" y="542" type="line" smooth="yes"/>
      <point x="1154" y="772"/>
      <point x="894" y="1072"/>
      <point x="662" y="1072" type="qcurve" smooth="yes"/>
      <point x="504" y="1072"/>
      <point x="261" y="960"/>
      <point x="197" y="885" type="qcurve"/>
      <point x="200" y="885" type="line"/>
      <point x="197" y="1052" type="line"/>
      <point x="148" y="1052" type="line"/>
    </contour>
    <contour>
      <point x="202" y="242" type="qcurve"/>
      <point x="202" y="810" type="line"/>
      <point x="252" y="894"/>
      <point x="477" y="1022"/>
      <point x="638" y="1022" type="qcurve" smooth="yes"/>
      <point x="877" y="1022"/>
      <point x="1100" y="745"/>
      <point x="1100" y="542" type="qcurve" smooth="yes"/>
      <point x="1100" y="510" type="line" smooth="yes"/>
      <point x="1100" y="307"/>
      <point x="877" y="30"/>
      <point x="638" y="30" type="qcurve" smooth="yes"/>
      <point x="477" y="30"/>
      <point x="251" y="158"/>
    </contour>
  </outline>
</glyph>
<glyph name="q" format="1">
  <advance width="1239"/>
  <unicode hex="0071"/>
  <outline>
    <contour>
      <point x="85" y="510" type="line" smooth="yes"/>
      <point x="85" y="280"/>
      <point x="345" y="-20"/>
      <point x="577" y="-20" type="qcurve" smooth="yes"/>
      <point x="736" y="-20"/>
      <point x="963" y="78"/>
      <point x="1037" y="154" type="qcurve"/>
      <point x="1037" y="-416" type="line"/>
      <point x="1091" y="-416" type="line"/>
      <point x="1091" y="1052" type="line"/>
      <point x="1042" y="1052" type="line"/>
      <point x="1039" y="885" type="line"/>
      <point x="1042" y="885" type="line"/>
      <point x="978" y="960"/>
      <point x="735" y="1072"/>
      <point x="577" y="1072" type="qcurve" smooth="yes"/>
      <point x="345" y="1072"/>
      <point x="85" y="772"/>
      <point x="85" y="542" type="qcurve" smooth="yes"/>
    </contour>
    <contour>
      <point x="139" y="510" type="qcurve" smooth="yes"/>
      <point x="139" y="542" type="line" smooth="yes"/>
      <point x="139" y="745"/>
      <point x="362" y="1022"/>
      <point x="601" y="1022" type="qcurve" smooth="yes"/>
      <point x="762" y="1022"/>
      <point x="987" y="894"/>
      <point x="1037" y="810" type="qcurve"/>
      <point x="1037" y="242" type="line"/>
      <point x="988" y="158"/>
      <point x="762" y="30"/>
      <point x="601" y="30" type="qcurve" smooth="yes"/>
      <point x="362" y="30"/>
      <point x="139" y="307"/>
    </contour>
  </outline>
</glyph>
<glyph name="u" format="1">
  <advance width="1181"/>
  <unicode hex="0075"/>
  <outline>
    <contour>
      <point x="138" y="373" type="line" smooth="yes"/>
      <point x="138" y="161"/>
      <point x="347" y="-20"/>
      <point x="525" y="-20" type="qcurve" smooth="yes"/>
      <point x="672" y="-20"/>
      <point x="898" y="85"/>
      <point x="984" y="195" type="qcurve"/>
      <point x="981" y="195" type="line"/>
      <point x="984" y="0" type="line"/>
      <point x="1033" y="0" type="line"/>
      <point x="1033" y="1052" type="line"/>
      <point x="979" y="1052" type="line"/>
      <point x="979" y="268" type="line"/>
      <point x="909" y="165"/>
      <point x="698" y="30"/>
      <point x="554" y="30" type="qcurve" smooth="yes"/>
      <point x="381" y="30"/>
      <point x="192" y="188"/>
      <point x="192" y="371" type="qcurve" smooth="yes"/>
      <point x="192" y="1052" type="line"/>
      <point x="138" y="1052" type="line"/>
    </contour>
  </outline>
</glyph>
<glyph name="v" format="1">
  <advance width="1140"/>
  <unicode hex="0076"/>
  <outline>
    <contour>
      <point x="0" y="1052" type="line"/>
      <point x="539" y="0" type="line"/>
      <point x="601" y="0" type="line"/>
      <point x="1140" y="1052" type="line"/>
      <point x="1064" y="1052" type="line"/>
      <point x="662" y="200" type="line" smooth="yes"/>
      <point x="643" y="160"/>
      <point x="596" y="80"/>
      <point x="575" y="40" type="qcurve"/>
      <point x="571" y="40" type="line"/>
      <point x="550" y="80"/>
      <point x="504" y="160"/>
      <point x="484" y="200" type="qcurve" smooth="yes"/>
      <point x="80" y="1052" type="line"/>
    </contour>
  </outline>
</glyph>
<glyph name="x" format="1">
  <advance width="1140"/>
  <unicode hex="0078"/>
  <outline>
    <contour>
      <point x="20" y="0" type="line"/>
      <point x="108" y="0" type="line"/>
      <point x="568" y="514" type="line"/>
      <point x="588" y="514" type="line"/>
      <point x="1092" y="1052" type="line"/>
      <point x="1005" y="1052" type="line"/>
      <point x="558" y="552" type="line"/>
      <point x="538" y="552" type="line"/>
    </contour>
    <contour>
      <point x="48" y="1052" type="line"/>
      <point x="552" y="514" type="line"/>
      <point x="578" y="514" type="line"/>
      <point x="1028" y="0" type="line"/>
      <point x="1120" y="0" type="line"/>
      <point x="602" y="552" type="line"/>
      <point x="576" y="552" type="line"/>
      <point x="140" y="1052" type="line"/>
    </contour>
  </outline>
</glyph>
<glyph name="y" format="1">
  <advance width="1293"/>
  <unicode hex="0079"/>
  <outline>
    <contour>
      <point x="52" y="-419" type="line"/>
      <point x="68" y="-426"/>
      <point x="178" y="-437"/>
      <point x="217" y="-437" type="qcurve" smooth="yes"/>
      <point x="368" y="-437"/>
      <point x="584" y="-299"/>
      <point x="647" y="-178" type="qcurve" smooth="yes"/>
      <point x="1293" y="1052" type="line"/>
      <point x="1093" y="1052" type="line"/>
      <point x="721" y="328" type="line" smooth="yes"/>
      <point x="712" y="310"/>
      <point x="670" y="230"/>
      <point x="658" y="191" type="qcurve"/>
      <point x="656" y="191" type="line"/>
      <point x="643" y="230"/>
      <point x="605" y="309"/>
      <point x="595" y="328" type="qcurve" smooth="yes"/>
      <point x="216" y="1052" type="line"/>
      <point x="8" y="1052" type="line"/>
      <point x="569" y="21" type="line"/>
      <point x="516" y="-78" type="line" smooth="yes"/>
      <point x="460" y="-181"/>
      <point x="321" y="-275"/>
      <point x="194" y="-275" type="qcurve" smooth="yes"/>
      <point x="151" y="-275"/>
      <point x="71" y="-260"/>
      <point x="52" y="-256" type="qcurve"/>
    </contour>
    <contour>
      <point x="650.0" y="1052.0" type="move" name="top"/>
    </contour>
  </outline>
</glyph>
<glyph name="exclamdown" format="1">
  <advance width="476"/>
  <unicode hex="00A1"/>
  <outline>
    <contour>
      <point x="211" y="-280" type="line"/>
      <point x="265" y="-280" type="line"/>
      <point x="260" y="796" type="line"/>
      <point x="216" y="796" type="line"/>
    </contour>
    <contour>
      <point x="186" y="1123" type="qcurve" smooth="yes"/>
      <point x="186" y="1092"/>
      <point x="213" y="1048"/>
      <point x="238" y="1048" type="qcurve" smooth="yes"/>
      <point x="263" y="1048"/>
      <point x="290" y="1092"/>
      <point x="290" y="1123" type="qcurve" smooth="yes"/>
      <point x="290" y="1154"/>
      <point x="263" y="1198"/>
      <point x="238" y="1198" type="qcurve" smooth="yes"/>
      <point x="213" y="1198"/>
      <point x="186" y="1154"/>
    </contour>
  </outline>
</glyph>
<glyph name="cent" format="1">
  <advance width="1026"/>
  <unicode hex="00A2"/>
  <outline>
    <contour>
      <point x="85" y="520" type="line" smooth="yes"/>
      <point x="85" y="286.5925925925926"/>
      <point x="343.6707818930041" y="-10.0"/>
      <point x="569" y="-10" type="qcurve" smooth="yes"/>
      <point x="776.0934579439253" y="-10.0"/>
      <point x="991" y="217"/>
      <point x="991" y="357" type="qcurve"/>
      <point x="991" y="362" type="line"/>
      <point x="937" y="362" type="line"/>
      <point x="937" y="357" type="line"/>
      <point x="937" y="232"/>
      <point x="761.758064516129" y="40.0"/>
      <point x="569" y="40" type="qcurve" smooth="yes"/>
      <point x="348.1351351351351" y="40.0"/>
      <point x="139" y="317.79896907216494"/>
      <point x="139" y="520" type="qcurve" smooth="yes"/>
      <point x="139" y="552" type="line" smooth="yes"/>
      <point x="139" y="754.2010309278351"/>
      <point x="348.1351351351351" y="1032.0"/>
      <point x="569" y="1032" type="qcurve" smooth="yes"/>
      <point x="761.758064516129" y="1032.0"/>
      <point x="937" y="840"/>
      <point x="937" y="715" type="qcurve" smooth="yes"/>
      <point x="937" y="710" type="line"/>
      <point x="991" y="710" type="line"/>
      <point x="991" y="715" type="line" smooth="yes"/>
      <point x="991" y="855"/>
      <point x="776.0934579439253" y="1082.0"/>
      <point x="569" y="1082" type="qcurve" smooth="yes"/>
      <point x="343.6707818930041" y="1082.0"/>
      <point x="85" y="785.4074074074074"/>
      <point x="85" y="552" type="qcurve" smooth="yes"/>
    </contour>
    <contour>
      <point x="536" y="-256" type="line"/>
      <point x="590" y="-256" type="line"/>
      <point x="590" y="24" type="line"/>
      <point x="589" y="30" type="line"/>
      <point x="589" y="541" type="line"/>
      <point x="537" y="541" type="line"/>
      <point x="537" y="30" type="line"/>
      <point x="536" y="24" type="line"/>
    </contour>
    <contour>
      <point x="537" y="541" type="line"/>
      <point x="589" y="541" type="line"/>
      <point x="589" y="1052" type="line"/>
      <point x="590" y="1058" type="line"/>
      <point x="590" y="1328" type="line"/>
      <point x="536" y="1328" type="line"/>
      <point x="536" y="1058" type="line"/>
      <point x="537" y="1052" type="line"/>
    </contour>
  </outline>
</glyph>
<glyph name="sterling" format="1">
  <advance width="1164"/>
  <unicode hex="00A3"/>
  <outline>
    <contour>
      <point x="125" y="0" type="line"/>
      <point x="1088" y="0" type="line"/>
      <point x="1088" y="50" type="line"/>
      <point x="308" y="50" type="line"/>
      <point x="358.75307948211" y="90.4684732961712"/>
      <point x="422.0" y="290.0"/>
      <point x="422" y="440" type="qcurve" smooth="yes"/>
      <point x="422" y="580"/>
      <point x="317" y="930"/>
      <point x="317" y="1060" type="qcurve" smooth="yes"/>
      <point x="317.0" y="1240.0"/>
      <point x="493.9230769230769" y="1426.0"/>
      <point x="662" y="1426" type="qcurve" smooth="yes"/>
      <point x="829.5490196078431" y="1426.0"/>
      <point x="1014" y="1240.0"/>
      <point x="1014" y="1065" type="qcurve" smooth="yes"/>
      <point x="1014" y="1045" type="line"/>
      <point x="1068" y="1045" type="line"/>
      <point x="1068" y="1065" type="line" smooth="yes"/>
      <point x="1068" y="1250"/>
      <point x="855" y="1476"/>
      <point x="662" y="1476" type="qcurve" smooth="yes"/>
      <point x="469" y="1476"/>
      <point x="263" y="1250"/>
      <point x="263" y="1060" type="qcurve" smooth="yes"/>
      <point x="263" y="920"/>
      <point x="369" y="560"/>
      <point x="369" y="420" type="qcurve" smooth="yes"/>
      <point x="369" y="280"/>
      <point x="235" y="60"/>
      <point x="125" y="48" type="qcurve"/>
    </contour>
    <contour>
      <point x="100" y="690" type="line"/>
      <point x="968" y="690" type="line"/>
      <point x="968" y="740" type="line"/>
      <point x="100" y="740" type="line"/>
    </contour>
  </outline>
</glyph>
<glyph name="currency" format="1">
  <advance width="1778"/>
  <unicode hex="00A4"/>
  <outline>
    <contour>
      <point x="278" y="610" type="qcurve" smooth="yes"/>
      <point x="278.0" y="355.0"/>
      <point x="624.2695652173913" y="0.0"/>
      <point x="889" y="0" type="qcurve" smooth="yes"/>
      <point x="1153.7304347826087" y="0.0"/>
      <point x="1501.0" y="355.0"/>
      <point x="1501" y="610" type="qcurve" smooth="yes"/>
      <point x="1501.0" y="865.0"/>
      <point x="1153.7304347826087" y="1220.0"/>
      <point x="889" y="1220" type="qcurve" smooth="yes"/>
      <point x="624.2695652173913" y="1220.0"/>
      <point x="278.0" y="865.0"/>
    </contour>
    <contour>
      <point x="332" y="610" type="qcurve" smooth="yes"/>
      <point x="332.0" y="846.3120567375886"/>
      <point x="644.224609375" y="1170.0"/>
      <point x="889" y="1170" type="qcurve" smooth="yes"/>
      <point x="1133.7368421052631" y="1170.0"/>
      <point x="1447.0" y="846.3120567375886"/>
      <point x="1447" y="610" type="qcurve" smooth="yes"/>
      <point x="1447.0" y="373.68794326241135"/>
      <point x="1133.7368421052631" y="50.0"/>
      <point x="889" y="50" type="qcurve" smooth="yes"/>
      <point x="644.224609375" y="50.0"/>
      <point x="332.0" y="373.68794326241135"/>
    </contour>
    <contour>
      <point x="215" y="1210" type="line"/>
      <point x="463" y="1012" type="line"/>
      <point x="500" y="1048" type="line"/>
      <point x="253" y="1246" type="line"/>
    </contour>
    <contour>
      <point x="1278" y="1048" type="line"/>
      <point x="1316" y="1012" type="line"/>
      <point x="1563" y="1210" type="line"/>
      <point x="1525" y="1246" type="line"/>
    </contour>
    <contour>
      <point x="1278" y="172" type="line"/>
      <point x="1525" y="-26" type="line"/>
      <point x="1563" y="10" type="line"/>
      <point x="1316" y="208" type="line"/>
    </contour>
    <contour>
      <point x="215" y="10" type="line"/>
      <point x="253" y="-26" type="line"/>
      <point x="500" y="172" type="line"/>
      <point x="463" y="208" type="line"/>
    </contour>
  </outline>
</glyph>
<glyph name="yen" format="1">
  <advance width="1076"/>
  <unicode hex="00A5"/>
  <outline>
    <contour>
      <point x="-73" y="272" type="line"/>
      <point x="1147" y="272" type="line"/>
      <point x="1147" y="416" type="line"/>
      <point x="-73" y="416" type="line"/>
    </contour>
    <contour>
      <point x="-73" y="582" type="line"/>
      <point x="1147" y="582" type="line"/>
      <point x="1147" y="726" type="line"/>
      <point x="-73" y="726" type="line"/>
    </contour>
    <contour>
      <point x="444" y="0" type="line"/>
      <point x="632" y="0" type="line"/>
      <point x="632" y="592" type="line"/>
      <point x="1185" y="1456" type="line"/>
      <point x="1012" y="1456" type="line"/>
      <point x="606" y="862" type="line" smooth="yes"/>
      <point x="584" y="829"/>
      <point x="556" y="772"/>
      <point x="541" y="742" type="qcurve"/>
      <point x="533" y="742" type="line"/>
      <point x="518" y="772"/>
      <point x="489" y="829"/>
      <point x="468" y="862" type="qcurve" smooth="yes"/>
      <point x="83" y="1456" type="line"/>
      <point x="-110" y="1456" type="line"/>
      <point x="444" y="591" type="line"/>
    </contour>
  </outline>
</glyph>
<glyph name="brokenbar" format="1">
  <advance width="470"/>
  <unicode hex="00A6"/>
  <outline>
    <contour>
      <point x="210" y="-416" type="line"/>
      <point x="260" y="-416" type="line"/>
      <point x="260" y="420" type="line"/>
      <point x="210" y="420" type="line"/>
    </contour>
    <contour>
      <point x="210" y="620" type="line"/>
      <point x="260" y="620" type="line"/>
      <point x="260" y="1456" type="line"/>
      <point x="210" y="1456" type="line"/>
    </contour>
  </outline>
</glyph>
<glyph name="section" format="1">
  <advance width="1241.0"/>
  <unicode hex="00A7"/>
  <outline>
    <contour>
      <point x="134" y="556" type="qcurve" smooth="yes"/>
      <point x="134" y="434"/>
      <point x="350" y="304"/>
      <point x="569" y="253" type="qcurve" smooth="yes"/>
      <point x="860.0196413573599" y="182.45035621398966"/>
      <point x="1048.0" y="29.0"/>
      <point x="1048.0" y="-92.0" type="qcurve" smooth="yes"/>
      <point x="1048.0" y="-229.0"/>
      <point x="810.7632241813602" y="-396.0"/>
      <point x="606.0" y="-396.0" type="qcurve" smooth="yes"/>
      <point x="402.2463054187192" y="-396.0"/>
      <point x="154.0" y="-226.0"/>
      <point x="154.0" y="-56.0" type="qcurve" smooth="yes"/>
      <point x="154.0" y="-44.0" type="line"/>
      <point x="100.0" y="-44.0" type="line"/>
      <point x="100.0" y="-56.0" type="line" smooth="yes"/>
      <point x="100.0" y="-236.0"/>
      <point x="377.0" y="-446.0"/>
      <point x="606.0" y="-446.0" type="qcurve" smooth="yes"/>
      <point x="835.0" y="-446.0"/>
      <point x="1102.0" y="-247.0"/>
      <point x="1102.0" y="-92.0" type="qcurve" smooth="yes"/>
      <point x="1102.0" y="64.0"/>
      <point x="891.0" y="239.0"/>
      <point x="655.0" y="293.0" type="qcurve" smooth="yes"/>
      <point x="389.1679293478786" y="353.8247555508164"/>
      <point x="188.0" y="466.0"/>
      <point x="188.0" y="556.0" type="qcurve" smooth="yes"/>
      <point x="188.0" y="665.0"/>
      <point x="385.3611111111111" y="787.0"/>
      <point x="594" y="787" type="qcurve"/>
      <point x="465" y="830" type="line"/>
      <point x="306" y="810"/>
      <point x="134" y="669"/>
    </contour>
    <contour>
      <point x="173" y="1145" type="qcurve" smooth="yes"/>
      <point x="173" y="1007"/>
      <point x="369.0" y="830.0"/>
      <point x="608.0" y="777.0" type="qcurve" smooth="yes"/>
      <point x="879.6552113466125" y="716.3147975799184"/>
      <point x="1087.0" y="595.0"/>
      <point x="1087.0" y="497.0" type="qcurve" smooth="yes"/>
      <point x="1087.0" y="387.0"/>
      <point x="858.1868686868687" y="253.0"/>
      <point x="645.0" y="253.0" type="qcurve"/>
      <point x="820" y="210" type="line"/>
      <point x="965" y="237"/>
      <point x="1141.0" y="393.0"/>
      <point x="1141.0" y="497.0" type="qcurve" smooth="yes"/>
      <point x="1141.0" y="627.0"/>
      <point x="910.0" y="769.0"/>
      <point x="694.0" y="817.0" type="qcurve" smooth="yes"/>
      <point x="406.1679293478786" y="883.8247555508163"/>
      <point x="227.0" y="1033.0"/>
      <point x="227.0" y="1145.0" type="qcurve" smooth="yes"/>
      <point x="227.0" y="1283.0"/>
      <point x="432.3611111111111" y="1436.0"/>
      <point x="633.0" y="1436.0" type="qcurve" smooth="yes"/>
      <point x="832.8763440860215" y="1436.0"/>
      <point x="1051.0" y="1252.0"/>
      <point x="1051.0" y="1101.0" type="qcurve" smooth="yes"/>
      <point x="1051.0" y="1090.0" type="line"/>
      <point x="1105.0" y="1090.0" type="line"/>
      <point x="1105.0" y="1101.0" type="line" smooth="yes"/>
      <point x="1105.0" y="1262.0"/>
      <point x="858.0" y="1486.0"/>
      <point x="633.0" y="1486.0" type="qcurve" smooth="yes"/>
      <point x="407.0" y="1486.0"/>
      <point x="173" y="1291"/>
    </contour>
  </outline>
</glyph>
<glyph name="dieresis" format="1">
  <advance width="1132"/>
  <unicode hex="00A8"/>
  <outline>
    <contour>
      <point x="306" y="1257" type="qcurve" smooth="yes"/>
      <point x="306" y="1227"/>
      <point x="332" y="1186"/>
      <point x="356" y="1186" type="qcurve" smooth="yes"/>
      <point x="380" y="1186"/>
      <point x="406" y="1227"/>
      <point x="406" y="1257" type="qcurve" smooth="yes"/>
      <point x="406" y="1287"/>
      <point x="380" y="1328"/>
      <point x="356" y="1328" type="qcurve" smooth="yes"/>
      <point x="332" y="1328"/>
      <point x="306" y="1287"/>
    </contour>
    <contour>
      <point x="726" y="1257" type="qcurve" smooth="yes"/>
      <point x="726" y="1227"/>
      <point x="752" y="1186"/>
      <point x="776" y="1186" type="qcurve" smooth="yes"/>
      <point x="800" y="1186"/>
      <point x="826" y="1227"/>
      <point x="826" y="1257" type="qcurve" smooth="yes"/>
      <point x="826" y="1287"/>
      <point x="800" y="1328"/>
      <point x="776" y="1328" type="qcurve" smooth="yes"/>
      <point x="752" y="1328"/>
      <point x="726" y="1287"/>
    </contour>
  </outline>
</glyph>
<glyph name="guillemetleft" format="1">
  <advance width="1054"/>
  <unicode hex="00AB"/>
  <outline>
    <contour>
      <point x="474" y="204" type="line"/>
      <point x="553" y="204" type="line"/>
      <point x="157" y="602" type="line"/>
      <point x="553" y="1000" type="line"/>
      <point x="474" y="1000" type="line"/>
      <point x="72" y="612" type="line"/>
      <point x="72" y="592" type="line"/>
    </contour>
    <contour>
      <point x="909" y="204" type="line"/>
      <point x="988" y="204" type="line"/>
      <point x="592" y="602" type="line"/>
      <point x="988" y="1000" type="line"/>
      <point x="909" y="1000" type="line"/>
      <point x="507" y="612" type="line"/>
      <point x="507" y="592" type="line"/>
    </contour>
  </outline>
</glyph>
<glyph name="degree" format="1">
  <advance width="1100"/>
  <unicode hex="00B0"/>
  <outline>
    <contour>
      <point x="128" y="1151" type="qcurve" smooth="yes"/>
      <point x="128" y="1005"/>
      <point x="385" y="829"/>
      <point x="555" y="829" type="qcurve" smooth="yes"/>
      <point x="720" y="829"/>
      <point x="972" y="1005"/>
      <point x="972" y="1151" type="qcurve" smooth="yes"/>
      <point x="972" y="1300"/>
      <point x="720" y="1477"/>
      <point x="555" y="1477" type="qcurve" smooth="yes"/>
      <point x="385" y="1477"/>
      <point x="128" y="1300"/>
    </contour>
    <contour>
      <point x="257" y="1152" type="qcurve" smooth="yes"/>
      <point x="257" y="1215"/>
      <point x="413" y="1322"/>
      <point x="553" y="1322" type="qcurve" smooth="yes"/>
      <point x="690" y="1322"/>
      <point x="844" y="1215"/>
      <point x="844" y="1152" type="qcurve" smooth="yes"/>
      <point x="844" y="1089"/>
      <point x="690" y="984"/>
      <point x="553" y="984" type="qcurve" smooth="yes"/>
      <point x="413" y="984"/>
      <point x="257" y="1089"/>
    </contour>
  </outline>
</glyph>
<glyph name="mu.math" format="1">
  <advance width="1097"/>
  <unicode hex="00B5"/>
  <outline>
    <contour>
      <point x="148" y="-416" type="line"/>
      <point x="194" y="-416" type="line"/>
      <point x="194" y="111" type="line"/>
      <point x="243" y="49"/>
      <point x="406" y="-20"/>
      <point x="507" y="-20" type="qcurve" smooth="yes"/>
      <point x="631" y="-20"/>
      <point x="834" y="105"/>
      <point x="896" y="194" type="qcurve"/>
      <point x="898" y="194" type="line"/>
      <point x="901" y="0" type="line"/>
      <point x="949" y="0" type="line"/>
      <point x="949" y="1052" type="line"/>
      <point x="895" y="1052" type="line"/>
      <point x="895" y="294" type="line"/>
      <point x="850" y="184"/>
      <point x="653" y="30"/>
      <point x="519" y="30" type="qcurve" smooth="yes"/>
      <point x="365" y="30"/>
      <point x="202" y="184"/>
      <point x="202" y="361" type="qcurve" smooth="yes"/>
      <point x="202" y="1052" type="line"/>
      <point x="148" y="1052" type="line"/>
    </contour>
  </outline>
</glyph>
<glyph name="paragraph" format="1">
  <advance width="1410"/>
  <unicode hex="00B6"/>
  <outline>
    <contour>
      <point x="100" y="986" type="qcurve" smooth="yes"/>
      <point x="100" y="786"/>
      <point x="400" y="513"/>
      <point x="625" y="516" type="qcurve" smooth="yes"/>
      <point x="694" y="516" type="line"/>
      <point x="694" y="-200" type="line"/>
      <point x="749" y="-200" type="line"/>
      <point x="749" y="1406" type="line"/>
      <point x="1049" y="1406" type="line"/>
      <point x="1049" y="-200" type="line"/>
      <point x="1104" y="-200" type="line"/>
      <point x="1104" y="1406" type="line"/>
      <point x="1335" y="1406" type="line"/>
      <point x="1335" y="1456" type="line"/>
      <point x="625" y="1456" type="line" smooth="yes"/>
      <point x="400" y="1456"/>
      <point x="100" y="1186"/>
    </contour>
  </outline>
</glyph>
<glyph name="cedilla" format="1">
  <advance width="1024"/>
  <unicode hex="00B8"/>
  <outline>
    <contour>
      <point x="488" y="0" type="line"/>
      <point x="428" y="-215" type="line"/>
      <point x="563" y="-215"/>
      <point x="678" y="-282"/>
      <point x="678" y="-340" type="qcurve" smooth="yes"/>
      <point x="678" y="-408"/>
      <point x="502" y="-488"/>
      <point x="307" y="-488" type="qcurve"/>
      <point x="309" y="-536" type="line"/>
      <point x="547" y="-536"/>
      <point x="728" y="-422"/>
      <point x="728" y="-340" type="qcurve" smooth="yes"/>
      <point x="728" y="-258"/>
      <point x="598" y="-170"/>
      <point x="494" y="-166" type="qcurve"/>
      <point x="542" y="0" type="line"/>
    </contour>
  </outline>
</glyph>
<glyph name="ordmasculine" format="1">
  <advance width="1275"/>
  <unicode hex="00BA"/>
  <outline>
    <contour>
      <point x="78" y="1020" type="line" smooth="yes"/>
      <point x="78" y="835"/>
      <point x="381" y="603"/>
      <point x="637" y="603" type="qcurve" smooth="yes"/>
      <point x="887" y="603"/>
      <point x="1197" y="829"/>
      <point x="1197" y="993" type="qcurve" smooth="yes"/>
      <point x="1197" y="1067" type="line" smooth="yes"/>
      <point x="1197" y="1246"/>
      <point x="895" y="1473"/>
      <point x="634" y="1473" type="qcurve" smooth="yes"/>
      <point x="386" y="1473"/>
      <point x="78" y="1246"/>
      <point x="78" y="1085" type="qcurve" smooth="yes"/>
    </contour>
    <contour>
      <point x="252" y="1092" type="line" smooth="yes"/>
      <point x="252" y="1162"/>
      <point x="420" y="1326"/>
      <point x="635" y="1326" type="qcurve" smooth="yes"/>
      <point x="854" y="1326"/>
      <point x="1023" y="1158"/>
      <point x="1023" y="1074" type="qcurve" smooth="yes"/>
      <point x="1023" y="1002" type="line" smooth="yes"/>
      <point x="1023" y="927"/>
      <point x="854" y="750"/>
      <point x="638" y="750" type="qcurve" smooth="yes"/>
      <point x="419" y="750"/>
      <point x="252" y="934"/>
      <point x="252" y="1029" type="qcurve" smooth="yes"/>
    </contour>
  </outline>
</glyph>
<glyph name="questiondown" format="1">
  <advance width="708"/>
  <unicode hex="00BF"/>
  <outline>
    <contour>
      <point x="-13" y="26" type="qcurve" smooth="yes"/>
      <point x="-13" y="-100"/>
      <point x="186" y="-300"/>
      <point x="362" y="-300" type="qcurve" smooth="yes"/>
      <point x="539" y="-300"/>
      <point x="744" y="-90"/>
      <point x="744" y="61" type="qcurve" smooth="yes"/>
      <point x="744" y="81" type="line"/>
      <point x="689" y="81" type="line"/>
      <point x="689" y="61" type="line" smooth="yes"/>
      <point x="689" y="-78"/>
      <point x="522" y="-250"/>
      <point x="362" y="-250" type="qcurve" smooth="yes"/>
      <point x="201" y="-250"/>
      <point x="42" y="-85"/>
      <point x="42" y="26" type="qcurve" smooth="yes"/>
      <point x="42" y="145"/>
      <point x="143" y="302"/>
      <point x="239" y="399" type="qcurve" smooth="yes"/>
      <point x="327" y="478"/>
      <point x="436" y="644"/>
      <point x="436" y="756" type="qcurve" smooth="yes"/>
      <point x="436" y="766" type="line"/>
      <point x="381" y="766" type="line"/>
      <point x="381" y="756" type="line" smooth="yes"/>
      <point x="381" y="672"/>
      <point x="299" y="534"/>
      <point x="186" y="420" type="qcurve" smooth="yes"/>
      <point x="88" y="320"/>
      <point x="-13" y="160"/>
    </contour>
    <contour>
      <point x="354" y="1123" type="qcurve" smooth="yes"/>
      <point x="354" y="1092"/>
      <point x="381" y="1048"/>
      <point x="406" y="1048" type="qcurve" smooth="yes"/>
      <point x="431" y="1048"/>
      <point x="458" y="1092"/>
      <point x="458" y="1123" type="qcurve" smooth="yes"/>
      <point x="458" y="1154"/>
      <point x="431" y="1198"/>
      <point x="406" y="1198" type="qcurve" smooth="yes"/>
      <point x="381" y="1198"/>
      <point x="354" y="1154"/>
    </contour>
  </outline>
</glyph>
<glyph name="multiply" format="1">
  <advance width="1170.0"/>
  <unicode hex="00D7"/>
  <outline>
    <contour>
      <point x="69" y="185" type="line"/>
      <point x="103" y="147" type="line"/>
      <point x="1101" y="1165" type="line"/>
      <point x="1067" y="1203" type="line"/>
    </contour>
    <contour>
      <point x="69" y="1163" type="line"/>
      <point x="1066" y="147" type="line"/>
      <point x="1101" y="187" type="line"/>
      <point x="104" y="1203" type="line"/>
    </contour>
  </outline>
</glyph>
<glyph name="Thorn" format="1">
  <advance width="1220"/>
  <unicode hex="00DE"/>
  <outline>
    <contour>
      <point x="170" y="0" type="line"/>
      <point x="224" y="0" type="line"/>
      <point x="224" y="317" type="line"/>
      <point x="675" y="317" type="line" smooth="yes"/>
      <point x="902" y="317"/>
      <point x="1120" y="553"/>
      <point x="1120" y="735" type="qcurve" smooth="yes"/>
      <point x="1120" y="917"/>
      <point x="902" y="1153"/>
      <point x="675" y="1153" type="qcurve" smooth="yes"/>
      <point x="224" y="1153" type="line"/>
      <point x="224" y="1456" type="line"/>
      <point x="170" y="1456" type="line"/>
    </contour>
    <contour>
      <point x="224" y="367" type="line"/>
      <point x="224" y="1103" type="line"/>
      <point x="675" y="1103" type="line" smooth="yes"/>
      <point x="892" y="1103"/>
      <point x="1065" y="893"/>
      <point x="1065" y="735" type="qcurve" smooth="yes"/>
      <point x="1065" y="577"/>
      <point x="892" y="367"/>
      <point x="675" y="367" type="qcurve" smooth="yes"/>
    </contour>
  </outline>
</glyph>
<glyph name="germandbls" format="1">
  <advance width="1597"/>
  <unicode hex="00DF"/>
  <outline>
    <contour>
      <point x="320.0" y="1112.0" type="line" smooth="yes"/>
      <point x="320.0" y="1251.0"/>
      <point x="504" y="1403"/>
      <point x="689" y="1403" type="qcurve" smooth="yes"/>
      <point x="872" y="1403"/>
      <point x="1016" y="1272"/>
      <point x="1016" y="1201" type="qcurve" smooth="yes"/>
      <point x="1016" y="1163"/>
      <point x="959.0" y="1074.0"/>
      <point x="922.0" y="1035.0" type="qcurve" smooth="yes"/>
      <point x="882.0" y="991.0"/>
      <point x="813.0" y="900.0"/>
      <point x="813.0" y="822.0" type="qcurve" smooth="yes"/>
      <point x="813.0" y="719.0"/>
      <point x="942.0" y="600.0"/>
      <point x="1004.0" y="564.0" type="qcurve" smooth="yes"/>
      <point x="1130.0" y="492.0"/>
      <point x="1327.0" y="377.0"/>
      <point x="1327.0" y="308.0" type="qcurve" smooth="yes"/>
      <point x="1327.0" y="244.0"/>
      <point x="1162.0" y="131.0"/>
      <point x="959.0" y="131.0" type="qcurve" smooth="yes"/>
      <point x="827.0" y="131.0"/>
      <point x="626.0" y="186.0"/>
      <point x="637.0" y="181.0" type="qcurve"/>
      <point x="584.0" y="49.0" type="line"/>
      <point x="634.0" y="24.0"/>
      <point x="897.0" y="-20.0"/>
      <point x="987.0" y="-20.0" type="qcurve" smooth="yes"/>
      <point x="1202.0" y="-20.0"/>
      <point x="1509.0" y="140.0"/>
      <point x="1509.0" y="317.0" type="qcurve" smooth="yes"/>
      <point x="1509.0" y="447.0"/>
      <point x="1286" y="595"/>
      <point x="1173" y="659" type="qcurve" smooth="yes"/>
      <point x="1105" y="698"/>
      <point x="994.0" y="778.0"/>
      <point x="994.0" y="820.0" type="qcurve" smooth="yes"/>
      <point x="994.0" y="854.0"/>
      <point x="1049.0" y="932.0"/>
      <point x="1082.0" y="969.0" type="qcurve" smooth="yes"/>
      <point x="1119.0" y="1011.0"/>
      <point x="1183" y="1116"/>
      <point x="1183" y="1217" type="qcurve" smooth="yes"/>
      <point x="1183" y="1375"/>
      <point x="911" y="1554"/>
      <point x="674" y="1554" type="qcurve" smooth="yes"/>
      <point x="448" y="1554"/>
      <point x="140.0" y="1339.0"/>
      <point x="140.0" y="1112.0" type="qcurve" smooth="yes"/>
      <point x="140.0" y="0.0" type="line"/>
      <point x="320.0" y="0.0" type="line"/>
    </contour>
  </outline>
</glyph>
<glyph name="ae" format="1">
  <advance width="1705"/>
  <unicode hex="00E6"/>
  <outline>
    <contour>
      <point x="90" y="280" type="qcurve" smooth="yes"/>
      <point x="90" y="130"/>
      <point x="276" y="-20"/>
      <point x="428" y="-20" type="qcurve" smooth="yes"/>
      <point x="590" y="-20"/>
      <point x="809" y="161"/>
      <point x="855" y="263" type="qcurve"/>
      <point x="909" y="128"/>
      <point x="1125" y="-30"/>
      <point x="1282" y="-30" type="qcurve" smooth="yes"/>
      <point x="1413" y="-30"/>
      <point x="1591" y="62"/>
      <point x="1642" y="120" type="qcurve"/>
      <point x="1603" y="160" type="line"/>
      <point x="1546" y="94"/>
      <point x="1394" y="20"/>
      <point x="1282" y="20" type="qcurve" smooth="yes"/>
      <point x="1070" y="20"/>
      <point x="869" y="302"/>
      <point x="869" y="510" type="qcurve" smooth="yes"/>
      <point x="869" y="542" type="line" smooth="yes"/>
      <point x="869" y="750"/>
      <point x="1055" y="1032"/>
      <point x="1232" y="1032" type="qcurve" smooth="yes"/>
      <point x="1424" y="1032"/>
      <point x="1582" y="770"/>
      <point x="1582" y="600" type="qcurve"/>
      <point x="1582" y="582" type="line"/>
      <point x="844" y="582" type="line"/>
      <point x="844" y="534" type="line"/>
      <point x="1641" y="534" type="line"/>
      <point x="1641" y="560" type="line" smooth="yes"/>
      <point x="1641" y="800"/>
      <point x="1429" y="1082"/>
      <point x="1232" y="1082" type="qcurve" smooth="yes"/>
      <point x="1105" y="1082"/>
      <point x="912" y="929"/>
      <point x="862" y="812" type="qcurve"/>
      <point x="840" y="938"/>
      <point x="674" y="1082"/>
      <point x="540" y="1082" type="qcurve" smooth="yes"/>
      <point x="361" y="1082"/>
      <point x="171" y="900"/>
      <point x="171" y="770" type="qcurve" smooth="yes"/>
      <point x="171" y="765" type="line"/>
      <point x="221" y="765" type="line"/>
      <point x="221" y="770" type="line" smooth="yes"/>
      <point x="221" y="874"/>
      <point x="365" y="1032"/>
      <point x="533" y="1032" type="qcurve" smooth="yes"/>
      <point x="688" y="1032"/>
      <point x="815" y="860"/>
      <point x="815" y="720" type="qcurve" smooth="yes"/>
      <point x="815" y="598" type="line"/>
      <point x="511" y="598" type="line" smooth="yes"/>
      <point x="327" y="598"/>
      <point x="90" y="425"/>
    </contour>
    <contour>
      <point x="144" y="280" type="qcurve" smooth="yes"/>
      <point x="144" y="400"/>
      <point x="343" y="548"/>
      <point x="536" y="548" type="qcurve" smooth="yes"/>
      <point x="815" y="548" type="line"/>
      <point x="815" y="330" type="line"/>
      <point x="815" y="220"/>
      <point x="588" y="30"/>
      <point x="448" y="30" type="qcurve" smooth="yes"/>
      <point x="292" y="30"/>
      <point x="144" y="160"/>
    </contour>
  </outline>
</glyph>
<glyph name="eth" format="1">
  <advance width="1513"/>
  <unicode hex="00F0"/>
  <outline>
    <contour>
      <point x="1435" y="1423" type="line"/>
      <point x="1326" y="1531" type="line"/>
      <point x="593" y="1195" type="line"/>
      <point x="702" y="1085" type="line"/>
    </contour>
    <contour>
      <point x="1214" y="635" type="line"/>
      <point x="1214" y="535" type="line" smooth="yes"/>
      <point x="1214" y="375"/>
      <point x="982" y="132"/>
      <point x="759" y="132" type="qcurve" smooth="yes"/>
      <point x="517" y="132"/>
      <point x="279" y="356"/>
      <point x="279" y="468" type="qcurve" smooth="yes"/>
      <point x="279" y="622"/>
      <point x="528" y="826"/>
      <point x="776" y="826" type="qcurve" smooth="yes"/>
      <point x="999" y="826"/>
      <point x="1215" y="664"/>
      <point x="1219" y="598" type="qcurve"/>
      <point x="1256" y="609" type="line"/>
      <point x="1256" y="757"/>
      <point x="928" y="978"/>
      <point x="711" y="978" type="qcurve" smooth="yes"/>
      <point x="459" y="978"/>
      <point x="96" y="708"/>
      <point x="96" y="468" type="qcurve" smooth="yes"/>
      <point x="96" y="256"/>
      <point x="476" y="-20"/>
      <point x="753" y="-20" type="qcurve" smooth="yes"/>
      <point x="1054" y="-20"/>
      <point x="1397" y="301"/>
      <point x="1397" y="684" type="qcurve" smooth="yes"/>
      <point x="1397" y="867" type="line" smooth="yes"/>
      <point x="1397" y="1180"/>
      <point x="1060" y="1557"/>
      <point x="770" y="1557" type="qcurve" smooth="yes"/>
      <point x="563" y="1557"/>
      <point x="244" y="1450"/>
      <point x="163" y="1376" type="qcurve"/>
      <point x="274" y="1268" type="line"/>
      <point x="292" y="1286"/>
      <point x="543" y="1405"/>
      <point x="744" y="1405" type="qcurve" smooth="yes"/>
      <point x="947" y="1405"/>
      <point x="1214" y="1155"/>
      <point x="1214" y="954" type="qcurve" smooth="yes"/>
    </contour>
  </outline>
</glyph>
<glyph name="divide" format="1">
  <advance width="1170"/>
  <unicode hex="00F7"/>
  <outline>
    <contour>
      <point x="26" y="647" type="line"/>
      <point x="1144" y="647" type="line"/>
      <point x="1144" y="701" type="line"/>
      <point x="26" y="701" type="line"/>
    </contour>
    <contour>
      <point x="533" y="297" type="qcurve" smooth="yes"/>
      <point x="533" y="266"/>
      <point x="560" y="222"/>
      <point x="585" y="222" type="qcurve" smooth="yes"/>
      <point x="610" y="222"/>
      <point x="637" y="266"/>
      <point x="637" y="297" type="qcurve" smooth="yes"/>
      <point x="637" y="328"/>
      <point x="610" y="372"/>
      <point x="585" y="372" type="qcurve" smooth="yes"/>
      <point x="560" y="372"/>
      <point x="533" y="328"/>
    </contour>
    <contour>
      <point x="533" y="1051" type="qcurve" smooth="yes"/>
      <point x="533" y="1020"/>
      <point x="560" y="976"/>
      <point x="585" y="976" type="qcurve" smooth="yes"/>
      <point x="610" y="976"/>
      <point x="637" y="1020"/>
      <point x="637" y="1051" type="qcurve" smooth="yes"/>
      <point x="637" y="1082"/>
      <point x="610" y="1126"/>
      <point x="585" y="1126" type="qcurve" smooth="yes"/>
      <point x="560" y="1126"/>
      <point x="533" y="1082"/>
    </contour>
  </outline>
</glyph>
<glyph name="oslash" format="1">
  <advance width="1138"/>
  <unicode hex="00F8"/>
  <outline>
    <contour>
      <point x="85" y="510" type="line" smooth="yes"/>
      <point x="85" y="272"/>
      <point x="349" y="-30"/>
      <point x="569" y="-30" type="qcurve" smooth="yes"/>
      <point x="790" y="-30"/>
      <point x="1053" y="272"/>
      <point x="1053" y="510" type="qcurve" smooth="yes"/>
      <point x="1053" y="542" type="line" smooth="yes"/>
      <point x="1053" y="780"/>
      <point x="790" y="1082"/>
      <point x="569" y="1082" type="qcurve" smooth="yes"/>
      <point x="349" y="1082"/>
      <point x="85" y="780"/>
      <point x="85" y="542" type="qcurve" smooth="yes"/>
    </contour>
    <contour>
      <point x="187" y="542" type="line" smooth="yes"/>
      <point x="187" y="748"/>
      <point x="381" y="1032"/>
      <point x="569" y="1032" type="qcurve" smooth="yes"/>
      <point x="757" y="1032"/>
      <point x="952" y="748"/>
      <point x="952" y="542" type="qcurve" smooth="yes"/>
      <point x="952" y="510" type="line" smooth="yes"/>
      <point x="952" y="304"/>
      <point x="757" y="20"/>
      <point x="569" y="20" type="qcurve" smooth="yes"/>
      <point x="381" y="20"/>
      <point x="187" y="304"/>
      <point x="187" y="510" type="qcurve" smooth="yes"/>
    </contour>
    <contour>
      <point x="74" y="-120" type="line"/>
      <point x="141" y="-120" type="line"/>
      <point x="277" y="68" type="line"/>
      <point x="276" y="68" type="line"/>
      <point x="600" y="526" type="line"/>
      <point x="540" y="526" type="line"/>
      <point x="271" y="150" type="line"/>
      <point x="270" y="150" type="line"/>
    </contour>
    <contour>
      <point x="540" y="526" type="line"/>
      <point x="600" y="526" type="line"/>
      <point x="869" y="902" type="line"/>
      <point x="869" y="902" type="line"/>
      <point x="1064" y="1172" type="line"/>
      <point x="997" y="1172" type="line"/>
      <point x="865" y="984" type="line"/>
      <point x="865" y="984" type="line"/>
    </contour>
  </outline>
</glyph>
<glyph name="thorn" format="1">
  <advance width="1136"/>
  <unicode hex="00FE"/>
  <outline>
    <contour>
      <point x="148" y="-416" type="line"/>
      <point x="202" y="-416" type="line"/>
      <point x="202" y="133" type="line"/>
      <point x="250" y="76"/>
      <point x="472" y="-20"/>
      <point x="607" y="-20" type="qcurve" smooth="yes"/>
      <point x="817" y="-20"/>
      <point x="1051" y="284"/>
      <point x="1051" y="510" type="qcurve" smooth="yes"/>
      <point x="1051" y="542" type="line" smooth="yes"/>
      <point x="1051" y="768"/>
      <point x="817" y="1072"/>
      <point x="607" y="1072" type="qcurve" smooth="yes"/>
      <point x="472" y="1072"/>
      <point x="251" y="972"/>
      <point x="202" y="906" type="qcurve"/>
      <point x="202" y="1536" type="line"/>
      <point x="148" y="1536" type="line"/>
    </contour>
    <contour>
      <point x="202" y="212" type="qcurve"/>
      <point x="202" y="840" type="line"/>
      <point x="241" y="912"/>
      <point x="445" y="1022"/>
      <point x="587" y="1022" type="qcurve" smooth="yes"/>
      <point x="799" y="1022"/>
      <point x="997" y="745"/>
      <point x="997" y="542" type="qcurve" smooth="yes"/>
      <point x="997" y="510" type="line" smooth="yes"/>
      <point x="997" y="307"/>
      <point x="799" y="30"/>
      <point x="587" y="30" type="qcurve" smooth="yes"/>
      <point x="445" y="30"/>
      <point x="241" y="140"/>
    </contour>
  </outline>
</glyph>
<glyph name="OE" format="1">
  <advance width="2044"/>
  <unicode hex="0152"/>
  <outline>
    <contour>
      <point x="115" y="682" type="line" smooth="yes"/>
      <point x="115" y="346"/>
      <point x="468" y="-30"/>
      <point x="744" y="-30" type="qcurve" smooth="yes"/>
      <point x="860" y="-30"/>
      <point x="1075" y="36"/>
      <point x="1144" y="98" type="qcurve"/>
      <point x="1144" y="172" type="line"/>
      <point x="1086" y="106"/>
      <point x="881" y="20"/>
      <point x="744" y="20" type="qcurve" smooth="yes"/>
      <point x="485" y="20"/>
      <point x="170" y="373"/>
      <point x="170" y="682" type="qcurve" smooth="yes"/>
      <point x="170" y="774" type="line" smooth="yes"/>
      <point x="170" y="1083"/>
      <point x="485" y="1436"/>
      <point x="744" y="1436" type="qcurve" smooth="yes"/>
      <point x="881" y="1436"/>
      <point x="1086" y="1350"/>
      <point x="1144" y="1284" type="qcurve"/>
      <point x="1144" y="1358" type="line"/>
      <point x="1075" y="1420"/>
      <point x="860" y="1486"/>
      <point x="744" y="1486" type="qcurve" smooth="yes"/>
      <point x="468" y="1486"/>
      <point x="115" y="1110"/>
      <point x="115" y="774" type="qcurve" smooth="yes"/>
    </contour>
    <contour>
      <point x="1094" y="0" type="line"/>
      <point x="1976" y="0" type="line"/>
      <point x="1976" y="50" type="line"/>
      <point x="1148" y="50" type="line"/>
      <point x="1148" y="726" type="line"/>
      <point x="1849" y="726" type="line"/>
      <point x="1849" y="776" type="line"/>
      <point x="1148" y="776" type="line"/>
      <point x="1148" y="1406" type="line"/>
      <point x="1964" y="1406" type="line"/>
      <point x="1964" y="1456" type="line"/>
      <point x="1094" y="1456" type="line"/>
    </contour>
  </outline>
</glyph>
<glyph name="oe" format="1">
  <advance width="1833"/>
  <unicode hex="0153"/>
  <outline>
    <contour>
      <point x="85" y="510" type="line" smooth="yes"/>
      <point x="85" y="272"/>
      <point x="335" y="-30"/>
      <point x="543" y="-30" type="qcurve" smooth="yes"/>
      <point x="696" y="-30"/>
      <point x="916" y="156"/>
      <point x="973" y="309" type="qcurve"/>
      <point x="1028" y="157"/>
      <point x="1242" y="-30"/>
      <point x="1403" y="-30" type="qcurve" smooth="yes"/>
      <point x="1534" y="-30"/>
      <point x="1713" y="62"/>
      <point x="1765" y="120" type="qcurve"/>
      <point x="1725" y="160" type="line"/>
      <point x="1668" y="94"/>
      <point x="1515" y="20"/>
      <point x="1403" y="20" type="qcurve" smooth="yes"/>
      <point x="1197" y="20"/>
      <point x="1002" y="302"/>
      <point x="1002" y="510" type="qcurve" smooth="yes"/>
      <point x="1002" y="542" type="line" smooth="yes"/>
      <point x="1002" y="750"/>
      <point x="1188" y="1032"/>
      <point x="1366" y="1032" type="qcurve" smooth="yes"/>
      <point x="1556" y="1032"/>
      <point x="1714" y="770"/>
      <point x="1714" y="600" type="qcurve"/>
      <point x="1714" y="582" type="line"/>
      <point x="977" y="582" type="line"/>
      <point x="977" y="534" type="line"/>
      <point x="1773" y="534" type="line"/>
      <point x="1773" y="560" type="line" smooth="yes"/>
      <point x="1773" y="800"/>
      <point x="1562" y="1082"/>
      <point x="1366" y="1082" type="qcurve" smooth="yes"/>
      <point x="1228" y="1082"/>
      <point x="1029" y="895"/>
      <point x="974" y="743" type="qcurve"/>
      <point x="917" y="896"/>
      <point x="696" y="1082"/>
      <point x="543" y="1082" type="qcurve" smooth="yes"/>
      <point x="335" y="1082"/>
      <point x="85" y="780"/>
      <point x="85" y="542" type="qcurve" smooth="yes"/>
    </contour>
    <contour>
      <point x="139" y="510" type="qcurve" smooth="yes"/>
      <point x="139" y="542" type="line" smooth="yes"/>
      <point x="139" y="748"/>
      <point x="344" y="1032"/>
      <point x="543" y="1032" type="qcurve" smooth="yes"/>
      <point x="742" y="1032"/>
      <point x="948" y="748"/>
      <point x="948" y="542" type="qcurve" smooth="yes"/>
      <point x="948" y="510" type="line" smooth="yes"/>
      <point x="948" y="304"/>
      <point x="742" y="20"/>
      <point x="543" y="20" type="qcurve" smooth="yes"/>
      <point x="344" y="20"/>
      <point x="139" y="304"/>
    </contour>
  </outline>
</glyph>
<glyph name="circumflex" format="1">
  <advance width="1186"/>
  <unicode hex="02C6"/>
  <outline>
    <contour>
      <point x="223" y="1156" type="line"/>
      <point x="307" y="1156" type="line"/>
      <point x="593" y="1439" type="line"/>
      <point x="879" y="1156" type="line"/>
      <point x="963" y="1156" type="line"/>
      <point x="631" y="1456" type="line"/>
      <point x="555" y="1456" type="line"/>
    </contour>
  </outline>
</glyph>
<glyph name="tilde" format="1">
  <advance width="1269"/>
  <unicode hex="02DC"/>
  <outline>
    <contour>
      <point x="1018" y="1413" type="line"/>
      <point x="1018" y="1380"/>
      <point x="919" y="1305"/>
      <point x="824" y="1305" type="qcurve" smooth="yes"/>
      <point x="676" y="1305"/>
      <point x="523" y="1400"/>
      <point x="429" y="1400" type="qcurve" smooth="yes"/>
      <point x="329" y="1400"/>
      <point x="158" y="1272"/>
      <point x="158" y="1152" type="qcurve"/>
      <point x="251" y="1149" type="line"/>
      <point x="251" y="1184"/>
      <point x="348" y="1258"/>
      <point x="442" y="1258" type="qcurve" smooth="yes"/>
      <point x="598" y="1258"/>
      <point x="722" y="1163"/>
      <point x="838" y="1163" type="qcurve" smooth="yes"/>
      <point x="938" y="1163"/>
      <point x="1111" y="1287"/>
      <point x="1111" y="1407" type="qcurve"/>
    </contour>
    <contour>
      <point x="634" y="1052" type="move" name="_top"/>
    </contour>
  </outline>
</glyph>
<glyph name="quoteleft" format="1">
  <advance width="332"/>
  <unicode hex="2018"/>
  <outline>
    <contour>
      <point x="120" y="1212" type="line"/>
      <point x="192" y="1212" type="line"/>
      <point x="192" y="1284" type="line" smooth="yes"/>
      <point x="192" y="1338"/>
      <point x="214" y="1420"/>
      <point x="236" y="1458" type="qcurve"/>
      <point x="186" y="1486" type="line"/>
      <point x="154" y="1446"/>
      <point x="120" y="1350"/>
      <point x="120" y="1284" type="qcurve" smooth="yes"/>
    </contour>
  </outline>
</glyph>
<glyph name="quotesinglbase" format="1">
  <advance width="487"/>
  <unicode hex="201A"/>
  <outline>
    <contour>
      <point x="95" y="-191" type="qcurve"/>
      <point x="227" y="-248" type="line"/>
      <point x="315" y="-200"/>
      <point x="443" y="-5"/>
      <point x="443" y="99" type="qcurve" smooth="yes"/>
      <point x="443" y="220" type="line"/>
      <point x="266" y="220" type="line"/>
      <point x="266" y="96" type="line" smooth="yes"/>
      <point x="266" y="29"/>
      <point x="171" y="-117"/>
    </contour>
  </outline>
</glyph>
<glyph name="quotedblleft" format="1">
  <advance width="604"/>
  <unicode hex="201C"/>
  <outline>
    <contour>
      <point x="120" y="1212" type="line"/>
      <point x="192" y="1212" type="line"/>
      <point x="192" y="1284" type="line" smooth="yes"/>
      <point x="192" y="1338"/>
      <point x="214" y="1420"/>
      <point x="236" y="1458" type="qcurve"/>
      <point x="186" y="1486" type="line"/>
      <point x="154" y="1446"/>
      <point x="120" y="1350"/>
      <point x="120" y="1284" type="qcurve" smooth="yes"/>
    </contour>
    <contour>
      <point x="392" y="1212" type="line"/>
      <point x="464" y="1212" type="line"/>
      <point x="464" y="1284" type="line" smooth="yes"/>
      <point x="464" y="1338"/>
      <point x="486" y="1420"/>
      <point x="508" y="1458" type="qcurve"/>
      <point x="458" y="1486" type="line"/>
      <point x="426" y="1446"/>
      <point x="392" y="1350"/>
      <point x="392" y="1284" type="qcurve" smooth="yes"/>
    </contour>
  </outline>
</glyph>
<glyph name="quotedblright" format="1">
  <advance width="1077"/>
  <unicode hex="201D"/>
  <outline>
    <contour>
      <point x="95" y="1045" type="qcurve"/>
      <point x="227" y="988" type="line"/>
      <point x="315" y="1036"/>
      <point x="443" y="1231"/>
      <point x="443" y="1335" type="qcurve" smooth="yes"/>
      <point x="443" y="1456" type="line"/>
      <point x="266" y="1456" type="line"/>
      <point x="266" y="1332" type="line" smooth="yes"/>
      <point x="266" y="1265"/>
      <point x="171" y="1119"/>
    </contour>
    <contour>
      <point x="685" y="1045" type="qcurve"/>
      <point x="817" y="988" type="line"/>
      <point x="905" y="1036"/>
      <point x="1033" y="1231"/>
      <point x="1033" y="1335" type="qcurve" smooth="yes"/>
      <point x="1033" y="1456" type="line"/>
      <point x="856" y="1456" type="line"/>
      <point x="856" y="1332" type="line" smooth="yes"/>
      <point x="856" y="1265"/>
      <point x="761" y="1119"/>
    </contour>
  </outline>
</glyph>
<glyph name="ellipsis" format="1">
  <advance width="1272"/>
  <unicode hex="2026"/>
  <outline>
    <contour>
      <point x="160" y="53" type="qcurve" smooth="yes"/>
      <point x="160" y="22"/>
      <point x="187" y="-22"/>
      <point x="212" y="-22" type="qcurve" smooth="yes"/>
      <point x="237" y="-22"/>
      <point x="264" y="22"/>
      <point x="264" y="53" type="qcurve" smooth="yes"/>
      <point x="264" y="84"/>
      <point x="237" y="128"/>
      <point x="212" y="128" type="qcurve" smooth="yes"/>
      <point x="187" y="128"/>
      <point x="160" y="84"/>
    </contour>
    <contour>
      <point x="584" y="53" type="qcurve" smooth="yes"/>
      <point x="584" y="22"/>
      <point x="611" y="-22"/>
      <point x="636" y="-22" type="qcurve" smooth="yes"/>
      <point x="661" y="-22"/>
      <point x="688" y="22"/>
      <point x="688" y="53" type="qcurve" smooth="yes"/>
      <point x="688" y="84"/>
      <point x="661" y="128"/>
      <point x="636" y="128" type="qcurve" smooth="yes"/>
      <point x="611" y="128"/>
      <point x="584" y="84"/>
    </contour>
    <contour>
      <point x="1008" y="53" type="qcurve" smooth="yes"/>
      <point x="1008" y="22"/>
      <point x="1035" y="-22"/>
      <point x="1060" y="-22" type="qcurve" smooth="yes"/>
      <point x="1085" y="-22"/>
      <point x="1112" y="22"/>
      <point x="1112" y="53" type="qcurve" smooth="yes"/>
      <point x="1112" y="84"/>
      <point x="1085" y="128"/>
      <point x="1060" y="128" type="qcurve" smooth="yes"/>
      <point x="1035" y="128"/>
      <point x="1008" y="84"/>
    </contour>
  </outline>
</glyph>
<glyph name="perthousand" format="1">
  <advance width="3068"/>
  <unicode hex="2030"/>
  <outline>
    <contour>
      <point x="72" y="982" type="line" smooth="yes"/>
      <point x="72" y="847"/>
      <point x="305" y="668"/>
      <point x="463" y="668" type="qcurve" smooth="yes"/>
      <point x="621" y="668"/>
      <point x="850" y="847"/>
      <point x="850" y="982" type="qcurve" smooth="yes"/>
      <point x="850" y="1169" type="line" smooth="yes"/>
      <point x="850" y="1305"/>
      <point x="621" y="1485"/>
      <point x="460" y="1485" type="qcurve" smooth="yes"/>
      <point x="304" y="1485"/>
      <point x="72" y="1305"/>
      <point x="72" y="1169" type="qcurve" smooth="yes"/>
    </contour>
    <contour>
      <point x="232" y="980" type="qcurve" smooth="yes"/>
      <point x="232" y="1171" type="line" smooth="yes"/>
      <point x="232" y="1217"/>
      <point x="342" y="1332"/>
      <point x="460" y="1332" type="qcurve" smooth="yes"/>
      <point x="578" y="1332"/>
      <point x="690" y="1217"/>
      <point x="690" y="1171" type="qcurve" smooth="yes"/>
      <point x="690" y="980" type="line" smooth="yes"/>
      <point x="690" y="935"/>
      <point x="582" y="821"/>
      <point x="463" y="821" type="qcurve" smooth="yes"/>
      <point x="344" y="821"/>
      <point x="232" y="935"/>
    </contour>
    <contour>
      <point x="1672" y="1414" type="line"/>
      <point x="1556" y="1471" type="line"/>
      <point x="350" y="24" type="line"/>
      <point x="466" y="-33" type="line"/>
    </contour>
    <contour>
      <point x="1223" y="291" type="line" smooth="yes"/>
      <point x="1223" y="155"/>
      <point x="1443" y="-23"/>
      <point x="1614" y="-23" type="qcurve" smooth="yes"/>
      <point x="1785" y="-23"/>
      <point x="2001" y="155"/>
      <point x="2001" y="291" type="qcurve" smooth="yes"/>
      <point x="2001" y="478" type="line" smooth="yes"/>
      <point x="2001" y="615"/>
      <point x="1785" y="794"/>
      <point x="1611" y="794" type="qcurve" smooth="yes"/>
      <point x="1442" y="794"/>
      <point x="1223" y="615"/>
      <point x="1223" y="478" type="qcurve" smooth="yes"/>
    </contour>
    <contour>
      <point x="1382" y="289" type="qcurve" smooth="yes"/>
      <point x="1382" y="480" type="line" smooth="yes"/>
      <point x="1382" y="526"/>
      <point x="1479" y="641"/>
      <point x="1611" y="641" type="qcurve" smooth="yes"/>
      <point x="1743" y="641"/>
      <point x="1841" y="526"/>
      <point x="1841" y="480" type="qcurve" smooth="yes"/>
      <point x="1841" y="289" type="line" smooth="yes"/>
      <point x="1841" y="244"/>
      <point x="1747" y="130"/>
      <point x="1614" y="130" type="qcurve" smooth="yes"/>
      <point x="1481" y="130"/>
      <point x="1382" y="244"/>
    </contour>
    <contour>
      <point x="2219" y="291" type="line" smooth="yes"/>
      <point x="2219" y="155"/>
      <point x="2439" y="-23"/>
      <point x="2610" y="-23" type="qcurve" smooth="yes"/>
      <point x="2780" y="-23"/>
      <point x="2996" y="155"/>
      <point x="2996" y="291" type="qcurve" smooth="yes"/>
      <point x="2996" y="478" type="line" smooth="yes"/>
      <point x="2996" y="615"/>
      <point x="2780" y="794"/>
      <point x="2607" y="794" type="qcurve" smooth="yes"/>
      <point x="2437" y="794"/>
      <point x="2219" y="615"/>
      <point x="2219" y="478" type="qcurve" smooth="yes"/>
    </contour>
    <contour>
      <point x="2377" y="289" type="qcurve" smooth="yes"/>
      <point x="2377" y="480" type="line" smooth="yes"/>
      <point x="2377" y="526"/>
      <point x="2475" y="641"/>
      <point x="2607" y="641" type="qcurve" smooth="yes"/>
      <point x="2739" y="641"/>
      <point x="2837" y="526"/>
      <point x="2837" y="480" type="qcurve" smooth="yes"/>
      <point x="2837" y="289" type="line" smooth="yes"/>
      <point x="2837" y="244"/>
      <point x="2743" y="130"/>
      <point x="2610" y="130" type="qcurve" smooth="yes"/>
      <point x="2476" y="130"/>
      <point x="2377" y="244"/>
    </contour>
  </outline>
</glyph>
<glyph name="won" format="1">
  <advance width="1568"/>
  <unicode hex="20A9"/>
  <outline>
    <contour>
      <point x="405" y="-10" type="line"/>
      <point x="479" y="-10" type="line"/>
      <point x="728" y="610" type="line" smooth="yes"/>
      <point x="742" y="643"/>
      <point x="768" y="705"/>
      <point x="782" y="738" type="qcurve"/>
      <point x="787" y="738" type="line"/>
      <point x="800" y="705"/>
      <point x="826" y="643"/>
      <point x="840" y="610" type="qcurve" smooth="yes"/>
      <point x="1089" y="-10" type="line"/>
      <point x="1163" y="-10" type="line"/>
      <point x="1450" y="1456" type="line"/>
      <point x="1395" y="1456" type="line"/>
      <point x="1153" y="178" type="line" smooth="yes"/>
      <point x="1146" y="144"/>
      <point x="1136" y="83"/>
      <point x="1130" y="50" type="qcurve"/>
      <point x="1125" y="50" type="line"/>
      <point x="1115" y="83"/>
      <point x="1085" y="144"/>
      <point x="1071" y="178" type="qcurve" smooth="yes"/>
      <point x="840" y="756" type="line"/>
      <point x="735" y="756" type="line"/>
      <point x="504" y="178" type="line" smooth="yes"/>
      <point x="490" y="144"/>
      <point x="460" y="83"/>
      <point x="450" y="50" type="qcurve"/>
      <point x="445" y="50" type="line"/>
      <point x="440" y="83"/>
      <point x="430" y="144"/>
      <point x="423" y="178" type="qcurve" smooth="yes"/>
      <point x="180" y="1456" type="line"/>
      <point x="118" y="1456" type="line"/>
    </contour>
    <contour>
      <point x="33" y="906" type="line"/>
      <point x="1535" y="906" type="line"/>
      <point x="1535" y="956" type="line"/>
      <point x="33" y="956" type="line"/>
    </contour>
    <contour>
      <point x="20" y="1216" type="line"/>
      <point x="1548" y="1216" type="line"/>
      <point x="1548" y="1266" type="line"/>
      <point x="20" y="1266" type="line"/>
    </contour>
  </outline>
</glyph>
<glyph name="Euro" format="1">
  <advance width="1156"/>
  <unicode hex="20AC"/>
  <outline>
    <contour>
      <point x="205" y="642" type="line" smooth="yes"/>
      <point x="205" y="316"/>
      <point x="471" y="-30"/>
      <point x="707" y="-30" type="qcurve" smooth="yes"/>
      <point x="914" y="-30"/>
      <point x="1126" y="219"/>
      <point x="1126" y="396" type="qcurve" smooth="yes"/>
      <point x="1126" y="406" type="line"/>
      <point x="1074" y="406" type="line"/>
      <point x="1074" y="396" type="line" smooth="yes"/>
      <point x="1074" y="238.0"/>
      <point x="907.703125" y="20.0"/>
      <point x="707" y="20" type="qcurve" smooth="yes"/>
      <point x="493.0" y="20.0"/>
      <point x="259" y="316.0"/>
      <point x="259" y="642" type="qcurve" smooth="yes"/>
      <point x="259" y="814" type="line" smooth="yes"/>
      <point x="259" y="1140.0"/>
      <point x="493.0" y="1436.0"/>
      <point x="707" y="1436" type="qcurve" smooth="yes"/>
      <point x="907.703125" y="1436.0"/>
      <point x="1074" y="1218.0"/>
      <point x="1074" y="1060" type="qcurve" smooth="yes"/>
      <point x="1074" y="1050" type="line"/>
      <point x="1126" y="1050" type="line"/>
      <point x="1126" y="1060" type="line" smooth="yes"/>
      <point x="1126" y="1237"/>
      <point x="914" y="1486"/>
      <point x="707" y="1486" type="qcurve" smooth="yes"/>
      <point x="471" y="1486"/>
      <point x="205" y="1140"/>
      <point x="205" y="814" type="qcurve" smooth="yes"/>
    </contour>
    <contour>
      <point x="30" y="592" type="line"/>
      <point x="932" y="592" type="line"/>
      <point x="932" y="642" type="line"/>
      <point x="30" y="642" type="line"/>
    </contour>
    <contour>
      <point x="30" y="814" type="line"/>
      <point x="932" y="814" type="line"/>
      <point x="932" y="864" type="line"/>
      <point x="30" y="864" type="line"/>
    </contour>
  </outline>
</glyph>
<glyph name="numero" format="1">
  <advance width="2558"/>
  <unicode hex="2116"/>
  <outline>
    <contour>
      <point x="170" y="0" type="line"/>
      <point x="224" y="0" type="line"/>
      <point x="224" y="1285" type="line" smooth="yes"/>
      <point x="224" y="1315"/>
      <point x="220" y="1390"/>
      <point x="216" y="1420" type="qcurve"/>
      <point x="226" y="1420" type="line"/>
      <point x="240" y="1395"/>
      <point x="280" y="1336"/>
      <point x="306" y="1306" type="qcurve" smooth="yes"/>
      <point x="1223" y="0" type="line"/>
      <point x="1290" y="0" type="line"/>
      <point x="1290" y="1456" type="line"/>
      <point x="1236" y="1456" type="line"/>
      <point x="1236" y="171" type="line" smooth="yes"/>
      <point x="1236" y="141"/>
      <point x="1240" y="58"/>
      <point x="1244" y="36" type="qcurve"/>
      <point x="1234" y="36" type="line"/>
      <point x="1220" y="61"/>
      <point x="1179" y="121"/>
      <point x="1153" y="151" type="qcurve" smooth="yes"/>
      <point x="238" y="1456" type="line"/>
      <point x="170" y="1456" type="line"/>
    </contour>
    <contour>
      <point x="1500" y="200" type="line"/>
      <point x="1500" y="250" type="line"/>
      <point x="2428" y="250" type="line"/>
      <point x="2428" y="200" type="line"/>
    </contour>
    <contour>
      <point x="1490" y="964" type="qcurve" smooth="yes"/>
      <point x="1490" y="984" type="line" smooth="yes"/>
      <point x="1490" y="1196"/>
      <point x="1740" y="1476"/>
      <point x="1964" y="1476" type="qcurve" smooth="yes"/>
      <point x="2188" y="1476"/>
      <point x="2438" y="1196"/>
      <point x="2438" y="984" type="qcurve" smooth="yes"/>
      <point x="2438" y="964" type="line" smooth="yes"/>
      <point x="2438" y="752"/>
      <point x="2188" y="472"/>
      <point x="1964" y="472" type="qcurve" smooth="yes"/>
      <point x="1740" y="472"/>
      <point x="1490" y="752"/>
    </contour>
    <contour>
      <point x="1544" y="964" type="line" smooth="yes"/>
      <point x="1544" y="771"/>
      <point x="1756" y="522"/>
      <point x="1964" y="522" type="qcurve" smooth="yes"/>
      <point x="2172" y="522"/>
      <point x="2384" y="771"/>
      <point x="2384" y="964" type="qcurve" smooth="yes"/>
      <point x="2384" y="984" type="line" smooth="yes"/>
      <point x="2384" y="1177"/>
      <point x="2172" y="1426"/>
      <point x="1964" y="1426" type="qcurve" smooth="yes"/>
      <point x="1756" y="1426"/>
      <point x="1544" y="1177"/>
      <point x="1544" y="984" type="qcurve" smooth="yes"/>
    </contour>
  </outline>
</glyph>
<glyph name="trademark" format="1">
  <advance width="1771"/>
  <unicode hex="2122"/>
  <outline>
    <contour>
      <point x="276" y="820" type="line"/>
      <point x="326" y="820" type="line"/>
      <point x="326" y="1408" type="line"/>
      <point x="604" y="1408" type="line"/>
      <point x="604" y="1456" type="line"/>
      <point x="-1" y="1456" type="line"/>
      <point x="-1" y="1408" type="line"/>
      <point x="276" y="1408" type="line"/>
    </contour>
    <contour>
      <point x="691" y="820" type="line"/>
      <point x="741" y="820" type="line"/>
      <point x="741" y="1390" type="line"/>
      <point x="1059" y="820" type="line"/>
      <point x="1121" y="820" type="line"/>
      <point x="1441" y="1390" type="line"/>
      <point x="1441" y="820" type="line"/>
      <point x="1491" y="820" type="line"/>
      <point x="1491" y="1456" type="line"/>
      <point x="1438" y="1456" type="line"/>
      <point x="1093" y="831" type="line"/>
      <point x="747" y="1456" type="line"/>
      <point x="691" y="1456" type="line"/>
    </contour>
  </outline>
</glyph>
<glyph name="fl" format="1">
  <advance width="1402"/>
  <unicode hex="FB02"/>
  <outline>
    <contour>
      <point x="239" y="0" type="line"/>
      <point x="425" y="0" type="line"/>
      <point x="425" y="970" type="line"/>
      <point x="425" y="992" type="line"/>
      <point x="425" y="1180" type="line" smooth="yes"/>
      <point x="425" y="1290"/>
      <point x="583" y="1400"/>
      <point x="744" y="1400" type="qcurve" smooth="yes"/>
      <point x="828" y="1400"/>
      <point x="993" y="1367"/>
      <point x="1062" y="1344" type="qcurve"/>
      <point x="1094" y="1496" type="line"/>
      <point x="1011" y="1524"/>
      <point x="831" y="1556"/>
      <point x="744" y="1556" type="qcurve" smooth="yes"/>
      <point x="506" y="1556"/>
      <point x="239" y="1364"/>
      <point x="239" y="1180" type="qcurve" smooth="yes"/>
    </contour>
    <contour>
      <point x="25" y="910" type="line"/>
      <point x="819" y="910" type="line"/>
      <point x="819" y="1052" type="line"/>
      <point x="384" y="1052" type="line"/>
      <point x="326" y="1052" type="line"/>
      <point x="25" y="1052" type="line"/>
    </contour>
    <contour>
      <point x="1060" y="0" type="line"/>
      <point x="1246" y="0" type="line"/>
      <point x="1246" y="1496" type="line"/>
      <point x="1060" y="1496" type="line"/>
    </contour>
  </outline>
</glyph>
<glyph name="f_f_l" format="1">
  <advance width="1790"/>
  <unicode hex="FB04"/>
  <outline>
    <contour>
      <point x="239" y="0" type="line"/>
      <point x="293" y="0" type="line"/>
      <point x="293" y="1022" type="line"/>
      <point x="293" y="1032" type="line"/>
      <point x="293" y="1200" type="line" smooth="yes"/>
      <point x="293" y="1355"/>
      <point x="468" y="1510"/>
      <point x="635" y="1510" type="qcurve" smooth="yes"/>
      <point x="704" y="1510"/>
      <point x="835" y="1489"/>
      <point x="889" y="1470" type="qcurve"/>
      <point x="907" y="1510" type="line"/>
      <point x="844" y="1532"/>
      <point x="706" y="1556"/>
      <point x="635" y="1556" type="qcurve" smooth="yes"/>
      <point x="449" y="1556"/>
      <point x="239" y="1374"/>
      <point x="239" y="1200" type="qcurve" smooth="yes"/>
    </contour>
    <contour>
      <point x="25" y="1002" type="line"/>
      <point x="679" y="1002" type="line"/>
      <point x="679" y="1052" type="line"/>
      <point x="300" y="1052" type="line"/>
      <point x="278" y="1052" type="line"/>
      <point x="25" y="1052" type="line"/>
    </contour>
    <contour>
      <point x="890" y="0" type="line"/>
      <point x="944" y="0" type="line"/>
      <point x="944" y="1022" type="line"/>
      <point x="944" y="1032" type="line"/>
      <point x="944" y="1200" type="line" smooth="yes"/>
      <point x="944" y="1355"/>
      <point x="1102" y="1510"/>
      <point x="1263" y="1510" type="qcurve" smooth="yes"/>
      <point x="1354" y="1510"/>
      <point x="1521" y="1475"/>
      <point x="1583" y="1452" type="qcurve"/>
      <point x="1603" y="1496" type="line"/>
      <point x="1529" y="1520"/>
      <point x="1353" y="1556"/>
      <point x="1263" y="1556" type="qcurve" smooth="yes"/>
      <point x="1088" y="1556"/>
      <point x="890" y="1374"/>
      <point x="890" y="1200" type="qcurve" smooth="yes"/>
    </contour>
    <contour>
      <point x="655" y="1002" type="line"/>
      <point x="1298" y="1002" type="line"/>
      <point x="1298" y="1052" type="line"/>
      <point x="954" y="1052" type="line"/>
      <point x="932" y="1052" type="line"/>
      <point x="655" y="1052" type="line"/>
    </contour>
    <contour>
      <point x="1579" y="0" type="line"/>
      <point x="1633" y="0" type="line"/>
      <point x="1633" y="1496" type="line"/>
      <point x="1579" y="1496" type="line"/>
    </contour>
  </outline>
</glyph>
<glyph name="bitcoin" format="1">
  <advance width="1469"/>
  <outline>
    <contour>
      <point x="221" y="0" type="line"/>
      <point x="792" y="0" type="line" smooth="yes"/>
      <point x="1060" y="0"/>
      <point x="1404" y="211"/>
      <point x="1404" y="420" type="qcurve" smooth="yes"/>
      <point x="1404" y="571"/>
      <point x="1199" y="742"/>
      <point x="1063" y="768" type="qcurve"/>
      <point x="1063" y="765" type="line"/>
      <point x="1198" y="798"/>
      <point x="1351" y="949"/>
      <point x="1351" y="1068" type="qcurve" smooth="yes"/>
      <point x="1351" y="1276"/>
      <point x="1023" y="1456"/>
      <point x="748" y="1456" type="qcurve" smooth="yes"/>
      <point x="221" y="1456" type="line"/>
    </contour>
    <contour>
      <point x="411" y="836" type="line"/>
      <point x="411" y="1298" type="line"/>
      <point x="799" y="1298" type="line" smooth="yes"/>
      <point x="989" y="1298"/>
      <point x="1162" y="1182"/>
      <point x="1162" y="1070" type="qcurve" smooth="yes"/>
      <point x="1162" y="967"/>
      <point x="974" y="836"/>
      <point x="805" y="836" type="qcurve" smooth="yes"/>
    </contour>
    <contour>
      <point x="411" y="157" type="line"/>
      <point x="411" y="681" type="line"/>
      <point x="847" y="681" type="line" smooth="yes"/>
      <point x="1046" y="681"/>
      <point x="1216" y="531"/>
      <point x="1216" y="418" type="qcurve" smooth="yes"/>
      <point x="1216" y="306"/>
      <point x="1024" y="157"/>
      <point x="836" y="157" type="qcurve" smooth="yes"/>
    </contour>
    <contour>
      <point x="791" y="369" type="line"/>
      <point x="791" y="518" type="line"/>
      <point x="372" y="518" type="line"/>
      <point x="299" y="524" type="line"/>
      <point x="42" y="524" type="line"/>
      <point x="42" y="366" type="line"/>
      <point x="303" y="366" type="line"/>
      <point x="368" y="369" type="line"/>
    </contour>
  </outline>
</glyph>
<glyph name="eight.pnum" format="1">
  <advance width="1375"/>
  <outline>
    <contour>
      <point x="90" y="412" type="qcurve" smooth="yes"/>
      <point x="90" y="198"/>
      <point x="439" y="-30"/>
      <point x="687" y="-30" type="qcurve" smooth="yes"/>
      <point x="934" y="-30"/>
      <point x="1285" y="198"/>
      <point x="1285" y="412" type="qcurve" smooth="yes"/>
      <point x="1285" y="553"/>
      <point x="1092" y="758"/>
      <point x="915" y="793" type="qcurve"/>
      <point x="915" y="797" type="line"/>
      <point x="1042" y="844"/>
      <point x="1184" y="996"/>
      <point x="1184" y="1104" type="qcurve" smooth="yes"/>
      <point x="1184" y="1287"/>
      <point x="887" y="1477"/>
      <point x="686" y="1477" type="qcurve" smooth="yes"/>
      <point x="486" y="1477"/>
      <point x="191" y="1287"/>
      <point x="191" y="1104" type="qcurve" smooth="yes"/>
      <point x="191" y="996"/>
      <point x="331" y="845"/>
      <point x="459" y="798" type="qcurve"/>
      <point x="459" y="795" type="line"/>
      <point x="285" y="760"/>
      <point x="90" y="554"/>
    </contour>
    <contour>
      <point x="361" y="1096" type="qcurve" smooth="yes"/>
      <point x="361" y="1192"/>
      <point x="533" y="1323"/>
      <point x="686" y="1323" type="qcurve" smooth="yes"/>
      <point x="841" y="1323"/>
      <point x="1015" y="1186"/>
      <point x="1015" y="1096" type="qcurve" smooth="yes"/>
      <point x="1015" y="1002"/>
      <point x="842" y="869"/>
      <point x="687" y="869" type="qcurve" smooth="yes"/>
      <point x="532" y="869"/>
      <point x="361" y="1002"/>
    </contour>
    <contour>
      <point x="269" y="424" type="qcurve" smooth="yes"/>
      <point x="269" y="550"/>
      <point x="482" y="714"/>
      <point x="685" y="714" type="qcurve" smooth="yes"/>
      <point x="883" y="714"/>
      <point x="1106" y="550"/>
      <point x="1106" y="424" type="qcurve" smooth="yes"/>
      <point x="1106" y="293"/>
      <point x="882" y="124"/>
      <point x="687" y="124" type="qcurve" smooth="yes"/>
      <point x="493" y="124"/>
      <point x="269" y="293"/>
    </contour>
  </outline>
</glyph>
<glyph name="five.pnum" format="1">
  <advance width="1490"/>
  <outline>
    <contour>
      <point x="280" y="365" type="line" smooth="yes"/>
      <point x="280" y="195"/>
      <point x="533" y="-30"/>
      <point x="737" y="-30" type="qcurve" smooth="yes"/>
      <point x="942" y="-30"/>
      <point x="1210.0" y="235.0"/>
      <point x="1210" y="465" type="qcurve" smooth="yes"/>
      <point x="1210.0" y="672.3305954825462"/>
      <point x="944" y="904"/>
      <point x="755" y="904" type="qcurve" smooth="yes"/>
      <point x="641" y="904"/>
      <point x="453" y="810"/>
      <point x="398" y="747" type="qcurve"/>
      <point x="461" y="1406" type="line"/>
      <point x="1130" y="1406" type="line"/>
      <point x="1130" y="1456" type="line"/>
      <point x="416" y="1456" type="line"/>
      <point x="342" y="720" type="line"/>
      <point x="416" y="692" type="line"/>
      <point x="480" y="764"/>
      <point x="637" y="854"/>
      <point x="737" y="854" type="qcurve" smooth="yes"/>
      <point x="921" y="854"/>
      <point x="1155.0" y="654.7560975609756"/>
      <point x="1155" y="465" type="qcurve" smooth="yes"/>
      <point x="1155.0" y="253.7240356083086"/>
      <point x="921" y="20"/>
      <point x="737" y="20" type="qcurve" smooth="yes"/>
      <point x="554" y="20"/>
      <point x="333" y="205"/>
      <point x="333" y="365" type="qcurve" smooth="yes"/>
      <point x="333" y="375" type="line"/>
      <point x="280" y="375" type="line"/>
    </contour>
  </outline>
</glyph>
<glyph name="six.pnum" format="1">
  <advance width="1390"/>
  <outline>
    <contour>
      <point x="207" y="614" type="line" smooth="yes"/>
      <point x="207" y="274.0"/>
      <point x="505" y="-30"/>
      <point x="713" y="-30" type="qcurve" smooth="yes"/>
      <point x="920" y="-30"/>
      <point x="1182.0" y="244.0"/>
      <point x="1182" y="464" type="qcurve" smooth="yes"/>
      <point x="1182.0" y="666.1138211382113"/>
      <point x="938" y="916"/>
      <point x="733" y="916" type="qcurve" smooth="yes"/>
      <point x="514" y="916"/>
      <point x="222" y="660"/>
      <point x="222" y="464" type="qcurve"/>
      <point x="254" y="464" type="line"/>
      <point x="254" y="630"/>
      <point x="532" y="866"/>
      <point x="713" y="866" type="qcurve" smooth="yes"/>
      <point x="911" y="866"/>
      <point x="1128.0" y="656.5748502994013"/>
      <point x="1128" y="464" type="qcurve" smooth="yes"/>
      <point x="1128.0" y="252.57142857142858"/>
      <point x="911" y="20"/>
      <point x="713" y="20" type="qcurve" smooth="yes"/>
      <point x="517" y="20"/>
      <point x="260" y="285.00840336134456"/>
      <point x="260" y="604" type="qcurve" smooth="yes"/>
      <point x="260" y="654" type="line" smooth="yes"/>
      <point x="260" y="1020"/>
      <point x="641" y="1436"/>
      <point x="963" y="1436" type="qcurve" smooth="yes"/>
      <point x="988" y="1436" type="line"/>
      <point x="988" y="1486" type="line"/>
      <point x="963" y="1486" type="line" smooth="yes"/>
      <point x="608" y="1486"/>
      <point x="207" y="1030"/>
      <point x="207" y="644" type="qcurve" smooth="yes"/>
    </contour>
  </outline>
</glyph>
<glyph name="two.pnum" format="1">
  <advance width="1436"/>
  <outline>
    <contour>
      <point x="280" y="0" type="line"/>
      <point x="1200" y="0" type="line"/>
      <point x="1200" y="50" type="line"/>
      <point x="384" y="50" type="line"/>
      <point x="881" y="595" type="line" smooth="yes"/>
      <point x="1011" y="734"/>
      <point x="1165" y="954"/>
      <point x="1165" y="1091" type="qcurve" smooth="yes"/>
      <point x="1165" y="1250"/>
      <point x="939" y="1486"/>
      <point x="744" y="1486" type="qcurve" smooth="yes"/>
      <point x="528" y="1486"/>
      <point x="286" y="1216"/>
      <point x="286" y="1030" type="qcurve" smooth="yes"/>
      <point x="286" y="1020" type="line"/>
      <point x="339" y="1020" type="line"/>
      <point x="339" y="1030" type="line" smooth="yes"/>
      <point x="339" y="1205"/>
      <point x="557" y="1436"/>
      <point x="744" y="1436" type="qcurve" smooth="yes"/>
      <point x="915" y="1436"/>
      <point x="1110" y="1231"/>
      <point x="1110" y="1081" type="qcurve" smooth="yes"/>
      <point x="1110" y="976"/>
      <point x="945" y="752"/>
      <point x="857" y="647" type="qcurve" smooth="yes"/>
      <point x="280" y="50" type="line"/>
    </contour>
  </outline>
</glyph>
